<mxfile host="app.diagrams.net" modified="2023-10-17T09:50:20.519Z" agent="Mozilla/5.0 (Windows NT 10.0; Win64; x64) AppleWebKit/537.36 (KHTML, like Gecko) Chrome/117.0.0.0 Safari/537.36" etag="HzDZNka0x5ffAnjrq36m" version="22.0.4" type="device" pages="7">
  <diagram name="Blocchi fondamentali" id="8_6qK6QoyK8JLs5h5lSh">
    <mxGraphModel dx="954" dy="727" grid="1" gridSize="10" guides="1" tooltips="1" connect="1" arrows="1" fold="1" page="1" pageScale="1" pageWidth="827" pageHeight="1169" math="0" shadow="0">
      <root>
        <mxCell id="0" />
        <mxCell id="1" parent="0" />
        <mxCell id="nkGHIwJD9XnwGKjA0RMC-1" value="inizio / fine" style="strokeWidth=2;html=1;shape=mxgraph.flowchart.start_1;whiteSpace=wrap;fontSize=10;" parent="1" vertex="1">
          <mxGeometry x="40" y="40" width="100" height="40" as="geometry" />
        </mxCell>
        <mxCell id="nkGHIwJD9XnwGKjA0RMC-2" value="output" style="shape=parallelogram;html=1;strokeWidth=2;perimeter=parallelogramPerimeter;whiteSpace=wrap;rounded=1;arcSize=12;size=0.23;fontSize=10;" parent="1" vertex="1">
          <mxGeometry x="284" y="200" width="100" height="40" as="geometry" />
        </mxCell>
        <mxCell id="nkGHIwJD9XnwGKjA0RMC-3" value="domanda o&lt;br style=&quot;font-size: 10px;&quot;&gt;test" style="strokeWidth=2;html=1;shape=mxgraph.flowchart.decision;whiteSpace=wrap;fontSize=10;" parent="1" vertex="1">
          <mxGeometry x="40" y="120" width="80" height="80" as="geometry" />
        </mxCell>
        <mxCell id="nkGHIwJD9XnwGKjA0RMC-9" style="edgeStyle=orthogonalEdgeStyle;rounded=0;orthogonalLoop=1;jettySize=auto;html=1;exitX=0.5;exitY=1;exitDx=0;exitDy=0;entryX=0.5;entryY=0;entryDx=0;entryDy=0;fontSize=10;" parent="1" source="nkGHIwJD9XnwGKjA0RMC-4" target="nkGHIwJD9XnwGKjA0RMC-2" edge="1">
          <mxGeometry relative="1" as="geometry">
            <mxPoint x="360" y="220" as="targetPoint" />
          </mxGeometry>
        </mxCell>
        <mxCell id="nkGHIwJD9XnwGKjA0RMC-4" value="input" style="html=1;strokeWidth=2;shape=manualInput;whiteSpace=wrap;rounded=1;size=26;arcSize=11;fontSize=10;" parent="1" vertex="1">
          <mxGeometry x="284" y="130" width="100" height="40" as="geometry" />
        </mxCell>
        <mxCell id="nkGHIwJD9XnwGKjA0RMC-5" value="" style="strokeWidth=2;html=1;shape=mxgraph.flowchart.start_2;whiteSpace=wrap;fontSize=10;" parent="1" vertex="1">
          <mxGeometry x="160" y="150" width="20" height="20" as="geometry" />
        </mxCell>
        <mxCell id="nkGHIwJD9XnwGKjA0RMC-6" value="connettore di flusso" style="text;html=1;strokeColor=none;fillColor=none;align=center;verticalAlign=middle;whiteSpace=wrap;rounded=0;fontSize=10;" parent="1" vertex="1">
          <mxGeometry x="190" y="145" width="60" height="30" as="geometry" />
        </mxCell>
        <mxCell id="nkGHIwJD9XnwGKjA0RMC-8" style="edgeStyle=orthogonalEdgeStyle;rounded=0;orthogonalLoop=1;jettySize=auto;html=1;exitX=0.5;exitY=1;exitDx=0;exitDy=0;entryX=0.5;entryY=0;entryDx=0;entryDy=0;fontSize=10;" parent="1" source="nkGHIwJD9XnwGKjA0RMC-7" target="nkGHIwJD9XnwGKjA0RMC-4" edge="1">
          <mxGeometry relative="1" as="geometry">
            <mxPoint x="444" y="240" as="targetPoint" />
          </mxGeometry>
        </mxCell>
        <mxCell id="nkGHIwJD9XnwGKjA0RMC-7" value="calcoli / assegnazioni /&amp;nbsp;&lt;br style=&quot;font-size: 10px;&quot;&gt;inizializzazioni" style="rounded=1;whiteSpace=wrap;html=1;absoluteArcSize=1;arcSize=14;strokeWidth=2;fontSize=10;" parent="1" vertex="1">
          <mxGeometry x="280" y="40" width="108" height="60" as="geometry" />
        </mxCell>
      </root>
    </mxGraphModel>
  </diagram>
  <diagram id="eao4sPlhWtZdMhOn6zPG" name="Algoritmo 1">
    <mxGraphModel dx="1194" dy="610" grid="1" gridSize="10" guides="1" tooltips="1" connect="1" arrows="1" fold="1" page="1" pageScale="1" pageWidth="827" pageHeight="1169" math="0" shadow="0">
      <root>
        <mxCell id="0" />
        <mxCell id="1" parent="0" />
        <mxCell id="wwRtld0HA5fNwZo1YcOV-1" value="&lt;h1&gt;Algoritmo 1&lt;/h1&gt;&lt;p&gt;Algoritmo di calcolo area e perimetro di un rettangolo, conoscendo base e altezza&lt;/p&gt;" style="text;html=1;strokeColor=#6c8ebf;fillColor=#dae8fc;spacing=5;spacingTop=-20;whiteSpace=wrap;overflow=hidden;rounded=0;" parent="1" vertex="1">
          <mxGeometry x="10" y="10" width="190" height="120" as="geometry" />
        </mxCell>
        <mxCell id="D7X-s1CDwdp24nomQhaG-4" style="edgeStyle=orthogonalEdgeStyle;rounded=0;orthogonalLoop=1;jettySize=auto;html=1;exitX=0.5;exitY=1;exitDx=0;exitDy=0;exitPerimeter=0;entryX=0.5;entryY=0;entryDx=0;entryDy=0;" parent="1" source="9XyMdHpp7iHFFFOZJvkH-1" target="B13z5g_byDbgPttKQWz3-1" edge="1">
          <mxGeometry relative="1" as="geometry" />
        </mxCell>
        <mxCell id="9XyMdHpp7iHFFFOZJvkH-1" value="INIZIO" style="strokeWidth=2;html=1;shape=mxgraph.flowchart.start_1;whiteSpace=wrap;fontSize=10;" parent="1" vertex="1">
          <mxGeometry x="360" y="40" width="100" height="40" as="geometry" />
        </mxCell>
        <mxCell id="B13z5g_byDbgPttKQWz3-1" value="&quot;INSERISCI BASE: &quot;" style="shape=parallelogram;html=1;strokeWidth=2;perimeter=parallelogramPerimeter;whiteSpace=wrap;rounded=1;arcSize=12;size=0.23;fontSize=10;" parent="1" vertex="1">
          <mxGeometry x="340" y="100" width="140" height="40" as="geometry" />
        </mxCell>
        <mxCell id="D7X-s1CDwdp24nomQhaG-6" style="edgeStyle=orthogonalEdgeStyle;rounded=0;orthogonalLoop=1;jettySize=auto;html=1;exitX=0.5;exitY=1;exitDx=0;exitDy=0;entryX=0.5;entryY=0;entryDx=0;entryDy=0;" parent="1" source="D7X-s1CDwdp24nomQhaG-1" target="D7X-s1CDwdp24nomQhaG-2" edge="1">
          <mxGeometry relative="1" as="geometry" />
        </mxCell>
        <mxCell id="D7X-s1CDwdp24nomQhaG-1" value="BASE" style="html=1;strokeWidth=2;shape=manualInput;whiteSpace=wrap;rounded=1;size=26;arcSize=11;fontSize=10;" parent="1" vertex="1">
          <mxGeometry x="359" y="160" width="100" height="40" as="geometry" />
        </mxCell>
        <mxCell id="D7X-s1CDwdp24nomQhaG-2" value="&quot;INSERISCI ALTEZZA: &quot;" style="shape=parallelogram;html=1;strokeWidth=2;perimeter=parallelogramPerimeter;whiteSpace=wrap;rounded=1;arcSize=12;size=0.23;fontSize=10;" parent="1" vertex="1">
          <mxGeometry x="330" y="220" width="160" height="40" as="geometry" />
        </mxCell>
        <mxCell id="ehx0Y5WLvB_fBRSaKNIs-4" style="edgeStyle=orthogonalEdgeStyle;rounded=0;orthogonalLoop=1;jettySize=auto;html=1;exitX=0.5;exitY=1;exitDx=0;exitDy=0;entryX=0.5;entryY=0;entryDx=0;entryDy=0;" parent="1" source="D7X-s1CDwdp24nomQhaG-3" target="sCE_Mfc92RAEVm9sZ_e3-1" edge="1">
          <mxGeometry relative="1" as="geometry" />
        </mxCell>
        <mxCell id="D7X-s1CDwdp24nomQhaG-3" value="ALTEZZA" style="html=1;strokeWidth=2;shape=manualInput;whiteSpace=wrap;rounded=1;size=26;arcSize=11;fontSize=10;" parent="1" vertex="1">
          <mxGeometry x="360" y="280" width="100" height="40" as="geometry" />
        </mxCell>
        <mxCell id="D7X-s1CDwdp24nomQhaG-5" style="edgeStyle=orthogonalEdgeStyle;rounded=0;orthogonalLoop=1;jettySize=auto;html=1;exitX=0.5;exitY=1;exitDx=0;exitDy=0;entryX=0.5;entryY=0.25;entryDx=0;entryDy=0;entryPerimeter=0;" parent="1" source="B13z5g_byDbgPttKQWz3-1" target="D7X-s1CDwdp24nomQhaG-1" edge="1">
          <mxGeometry relative="1" as="geometry" />
        </mxCell>
        <mxCell id="D7X-s1CDwdp24nomQhaG-7" style="edgeStyle=orthogonalEdgeStyle;rounded=0;orthogonalLoop=1;jettySize=auto;html=1;exitX=0.5;exitY=1;exitDx=0;exitDy=0;entryX=0.497;entryY=0.239;entryDx=0;entryDy=0;entryPerimeter=0;" parent="1" source="D7X-s1CDwdp24nomQhaG-2" target="D7X-s1CDwdp24nomQhaG-3" edge="1">
          <mxGeometry relative="1" as="geometry" />
        </mxCell>
        <mxCell id="ehx0Y5WLvB_fBRSaKNIs-5" style="edgeStyle=orthogonalEdgeStyle;rounded=0;orthogonalLoop=1;jettySize=auto;html=1;exitX=0.5;exitY=1;exitDx=0;exitDy=0;entryX=0.5;entryY=0;entryDx=0;entryDy=0;" parent="1" source="sCE_Mfc92RAEVm9sZ_e3-1" target="sCE_Mfc92RAEVm9sZ_e3-2" edge="1">
          <mxGeometry relative="1" as="geometry" />
        </mxCell>
        <mxCell id="sCE_Mfc92RAEVm9sZ_e3-1" value="AREA = BASE * ALTEZZA" style="rounded=1;whiteSpace=wrap;html=1;absoluteArcSize=1;arcSize=14;strokeWidth=2;fontSize=10;" parent="1" vertex="1">
          <mxGeometry x="345" y="340" width="130" height="40" as="geometry" />
        </mxCell>
        <mxCell id="ehx0Y5WLvB_fBRSaKNIs-6" style="edgeStyle=orthogonalEdgeStyle;rounded=0;orthogonalLoop=1;jettySize=auto;html=1;exitX=0.5;exitY=1;exitDx=0;exitDy=0;entryX=0.5;entryY=0;entryDx=0;entryDy=0;" parent="1" source="sCE_Mfc92RAEVm9sZ_e3-2" target="ehx0Y5WLvB_fBRSaKNIs-1" edge="1">
          <mxGeometry relative="1" as="geometry" />
        </mxCell>
        <mxCell id="sCE_Mfc92RAEVm9sZ_e3-2" value="2P = (BASE+ALTEZZA) * 2" style="rounded=1;whiteSpace=wrap;html=1;absoluteArcSize=1;arcSize=14;strokeWidth=2;fontSize=10;" parent="1" vertex="1">
          <mxGeometry x="345" y="400" width="130" height="40" as="geometry" />
        </mxCell>
        <mxCell id="ehx0Y5WLvB_fBRSaKNIs-7" style="edgeStyle=orthogonalEdgeStyle;rounded=0;orthogonalLoop=1;jettySize=auto;html=1;exitX=0.5;exitY=1;exitDx=0;exitDy=0;entryX=0.5;entryY=0;entryDx=0;entryDy=0;" parent="1" source="ehx0Y5WLvB_fBRSaKNIs-1" target="ehx0Y5WLvB_fBRSaKNIs-2" edge="1">
          <mxGeometry relative="1" as="geometry" />
        </mxCell>
        <mxCell id="ehx0Y5WLvB_fBRSaKNIs-1" value="AREA" style="shape=parallelogram;html=1;strokeWidth=2;perimeter=parallelogramPerimeter;whiteSpace=wrap;rounded=1;arcSize=12;size=0.23;fontSize=10;" parent="1" vertex="1">
          <mxGeometry x="360.5" y="460" width="100" height="40" as="geometry" />
        </mxCell>
        <mxCell id="ehx0Y5WLvB_fBRSaKNIs-2" value="2P" style="shape=parallelogram;html=1;strokeWidth=2;perimeter=parallelogramPerimeter;whiteSpace=wrap;rounded=1;arcSize=12;size=0.23;fontSize=10;" parent="1" vertex="1">
          <mxGeometry x="360.5" y="520" width="100" height="40" as="geometry" />
        </mxCell>
        <mxCell id="ehx0Y5WLvB_fBRSaKNIs-3" value="FINE" style="strokeWidth=2;html=1;shape=mxgraph.flowchart.start_1;whiteSpace=wrap;fontSize=10;" parent="1" vertex="1">
          <mxGeometry x="360" y="585" width="100" height="40" as="geometry" />
        </mxCell>
        <mxCell id="ehx0Y5WLvB_fBRSaKNIs-8" style="edgeStyle=orthogonalEdgeStyle;rounded=0;orthogonalLoop=1;jettySize=auto;html=1;exitX=0.5;exitY=1;exitDx=0;exitDy=0;entryX=0.5;entryY=0;entryDx=0;entryDy=0;entryPerimeter=0;" parent="1" source="ehx0Y5WLvB_fBRSaKNIs-2" target="ehx0Y5WLvB_fBRSaKNIs-3" edge="1">
          <mxGeometry relative="1" as="geometry" />
        </mxCell>
        <mxCell id="ehx0Y5WLvB_fBRSaKNIs-9" value="" style="strokeWidth=2;html=1;shape=mxgraph.flowchart.annotation_2;align=left;labelPosition=right;pointerEvents=1;" parent="1" vertex="1">
          <mxGeometry x="260" y="90" width="50" height="230" as="geometry" />
        </mxCell>
        <mxCell id="ehx0Y5WLvB_fBRSaKNIs-10" value="FASE DI INPUT VALORI INIZIALI" style="text;html=1;strokeColor=none;fillColor=none;align=center;verticalAlign=middle;whiteSpace=wrap;rounded=0;" parent="1" vertex="1">
          <mxGeometry x="200" y="190" width="60" height="30" as="geometry" />
        </mxCell>
        <mxCell id="ehx0Y5WLvB_fBRSaKNIs-11" value="" style="strokeWidth=2;html=1;shape=mxgraph.flowchart.annotation_2;align=left;labelPosition=right;pointerEvents=1;" parent="1" vertex="1">
          <mxGeometry x="260" y="330" width="50" height="120" as="geometry" />
        </mxCell>
        <mxCell id="ehx0Y5WLvB_fBRSaKNIs-12" value="FASE DI CALCOLO" style="text;html=1;strokeColor=none;fillColor=none;align=center;verticalAlign=middle;whiteSpace=wrap;rounded=0;" parent="1" vertex="1">
          <mxGeometry x="190" y="375" width="60" height="30" as="geometry" />
        </mxCell>
        <mxCell id="ehx0Y5WLvB_fBRSaKNIs-13" value="" style="strokeWidth=2;html=1;shape=mxgraph.flowchart.annotation_2;align=left;labelPosition=right;pointerEvents=1;" parent="1" vertex="1">
          <mxGeometry x="260" y="460" width="50" height="110" as="geometry" />
        </mxCell>
        <mxCell id="ehx0Y5WLvB_fBRSaKNIs-14" value="FASE DI COMUNICAZIONE VALORI" style="text;html=1;strokeColor=none;fillColor=none;align=center;verticalAlign=middle;whiteSpace=wrap;rounded=0;" parent="1" vertex="1">
          <mxGeometry x="170" y="500" width="60" height="30" as="geometry" />
        </mxCell>
        <mxCell id="ehx0Y5WLvB_fBRSaKNIs-15" style="edgeStyle=orthogonalEdgeStyle;rounded=0;orthogonalLoop=1;jettySize=auto;html=1;exitX=0.5;exitY=1;exitDx=0;exitDy=0;exitPerimeter=0;entryX=0.5;entryY=0;entryDx=0;entryDy=0;fillColor=#fff2cc;strokeColor=#d6b656;" parent="1" target="ehx0Y5WLvB_fBRSaKNIs-16" edge="1">
          <mxGeometry relative="1" as="geometry">
            <mxPoint x="600" y="60" as="sourcePoint" />
          </mxGeometry>
        </mxCell>
        <mxCell id="ehx0Y5WLvB_fBRSaKNIs-16" value="&quot;INSERISCI BASE: &quot;" style="shape=parallelogram;html=1;strokeWidth=2;perimeter=parallelogramPerimeter;whiteSpace=wrap;rounded=1;arcSize=12;size=0.23;fontSize=10;fillColor=#fff2cc;strokeColor=#d6b656;" parent="1" vertex="1">
          <mxGeometry x="530" y="80" width="140" height="40" as="geometry" />
        </mxCell>
        <mxCell id="ehx0Y5WLvB_fBRSaKNIs-17" style="edgeStyle=orthogonalEdgeStyle;rounded=0;orthogonalLoop=1;jettySize=auto;html=1;exitX=0.5;exitY=1;exitDx=0;exitDy=0;entryX=0.5;entryY=0;entryDx=0;entryDy=0;fillColor=#fff2cc;strokeColor=#d6b656;" parent="1" source="ehx0Y5WLvB_fBRSaKNIs-18" target="ehx0Y5WLvB_fBRSaKNIs-19" edge="1">
          <mxGeometry relative="1" as="geometry" />
        </mxCell>
        <mxCell id="ehx0Y5WLvB_fBRSaKNIs-18" value="BASE" style="html=1;strokeWidth=2;shape=manualInput;whiteSpace=wrap;rounded=1;size=26;arcSize=11;fontSize=10;fillColor=#fff2cc;strokeColor=#d6b656;" parent="1" vertex="1">
          <mxGeometry x="700" y="80" width="100" height="40" as="geometry" />
        </mxCell>
        <mxCell id="ehx0Y5WLvB_fBRSaKNIs-23" style="edgeStyle=orthogonalEdgeStyle;rounded=0;orthogonalLoop=1;jettySize=auto;html=1;exitX=0.5;exitY=1;exitDx=0;exitDy=0;fillColor=#fff2cc;strokeColor=#d6b656;" parent="1" source="ehx0Y5WLvB_fBRSaKNIs-19" edge="1">
          <mxGeometry relative="1" as="geometry">
            <mxPoint x="600" y="220" as="targetPoint" />
          </mxGeometry>
        </mxCell>
        <mxCell id="ehx0Y5WLvB_fBRSaKNIs-19" value="&quot;INSERISCI ALTEZZA: &quot;" style="shape=parallelogram;html=1;strokeWidth=2;perimeter=parallelogramPerimeter;whiteSpace=wrap;rounded=1;arcSize=12;size=0.23;fontSize=10;fillColor=#fff2cc;strokeColor=#d6b656;" parent="1" vertex="1">
          <mxGeometry x="520" y="160" width="160" height="40" as="geometry" />
        </mxCell>
        <mxCell id="ehx0Y5WLvB_fBRSaKNIs-20" value="ALTEZZA" style="html=1;strokeWidth=2;shape=manualInput;whiteSpace=wrap;rounded=1;size=26;arcSize=11;fontSize=10;fillColor=#fff2cc;strokeColor=#d6b656;" parent="1" vertex="1">
          <mxGeometry x="700" y="160" width="100" height="40" as="geometry" />
        </mxCell>
        <mxCell id="ehx0Y5WLvB_fBRSaKNIs-21" style="edgeStyle=orthogonalEdgeStyle;rounded=0;orthogonalLoop=1;jettySize=auto;html=1;exitX=1;exitY=0.5;exitDx=0;exitDy=0;entryX=0;entryY=0.5;entryDx=0;entryDy=0;fillColor=#fff2cc;strokeColor=#d6b656;" parent="1" source="ehx0Y5WLvB_fBRSaKNIs-16" target="ehx0Y5WLvB_fBRSaKNIs-18" edge="1">
          <mxGeometry relative="1" as="geometry" />
        </mxCell>
        <mxCell id="ehx0Y5WLvB_fBRSaKNIs-22" style="edgeStyle=orthogonalEdgeStyle;rounded=0;orthogonalLoop=1;jettySize=auto;html=1;exitX=1;exitY=0.5;exitDx=0;exitDy=0;fillColor=#fff2cc;strokeColor=#d6b656;" parent="1" source="ehx0Y5WLvB_fBRSaKNIs-19" edge="1">
          <mxGeometry relative="1" as="geometry">
            <mxPoint x="700" y="180" as="targetPoint" />
          </mxGeometry>
        </mxCell>
      </root>
    </mxGraphModel>
  </diagram>
  <diagram id="3vi_P_2TDYFw_8uyJAd8" name="Algoritmo 2">
    <mxGraphModel dx="995" dy="606" grid="1" gridSize="10" guides="1" tooltips="1" connect="1" arrows="1" fold="1" page="1" pageScale="1" pageWidth="827" pageHeight="1169" math="0" shadow="0">
      <root>
        <mxCell id="0" />
        <mxCell id="1" parent="0" />
        <mxCell id="lb5fXpX5OkWd_tXDtIGa-1" value="&lt;h1&gt;Massimo tra 5 valori&lt;/h1&gt;&lt;p&gt;Algoritmo che comunica il massimo tra 5 valori richiesti in input..&lt;/p&gt;" style="text;html=1;strokeColor=none;fillColor=none;spacing=5;spacingTop=-20;whiteSpace=wrap;overflow=hidden;rounded=0;" vertex="1" parent="1">
          <mxGeometry x="10" y="10" width="230" height="120" as="geometry" />
        </mxCell>
        <mxCell id="lb5fXpX5OkWd_tXDtIGa-8" style="edgeStyle=orthogonalEdgeStyle;rounded=0;orthogonalLoop=1;jettySize=auto;html=1;exitX=0.5;exitY=1;exitDx=0;exitDy=0;exitPerimeter=0;entryX=0.5;entryY=0;entryDx=0;entryDy=0;" edge="1" parent="1" source="lb5fXpX5OkWd_tXDtIGa-2" target="lb5fXpX5OkWd_tXDtIGa-3">
          <mxGeometry relative="1" as="geometry" />
        </mxCell>
        <mxCell id="lb5fXpX5OkWd_tXDtIGa-2" value="inizio" style="strokeWidth=2;html=1;shape=mxgraph.flowchart.start_1;whiteSpace=wrap;" vertex="1" parent="1">
          <mxGeometry x="330" y="40" width="100" height="60" as="geometry" />
        </mxCell>
        <mxCell id="lb5fXpX5OkWd_tXDtIGa-9" style="edgeStyle=orthogonalEdgeStyle;rounded=0;orthogonalLoop=1;jettySize=auto;html=1;exitX=1;exitY=0.5;exitDx=0;exitDy=0;entryX=0;entryY=0.5;entryDx=0;entryDy=0;" edge="1" parent="1" source="lb5fXpX5OkWd_tXDtIGa-3" target="lb5fXpX5OkWd_tXDtIGa-4">
          <mxGeometry relative="1" as="geometry" />
        </mxCell>
        <mxCell id="lb5fXpX5OkWd_tXDtIGa-3" value="&lt;br&gt;V1" style="html=1;strokeWidth=2;shape=manualInput;whiteSpace=wrap;rounded=1;size=26;arcSize=11;" vertex="1" parent="1">
          <mxGeometry x="90" y="160" width="100" height="40" as="geometry" />
        </mxCell>
        <mxCell id="lb5fXpX5OkWd_tXDtIGa-10" style="edgeStyle=orthogonalEdgeStyle;rounded=0;orthogonalLoop=1;jettySize=auto;html=1;exitX=1;exitY=0.5;exitDx=0;exitDy=0;entryX=0;entryY=0.5;entryDx=0;entryDy=0;" edge="1" parent="1" source="lb5fXpX5OkWd_tXDtIGa-4" target="lb5fXpX5OkWd_tXDtIGa-5">
          <mxGeometry relative="1" as="geometry" />
        </mxCell>
        <mxCell id="lb5fXpX5OkWd_tXDtIGa-4" value="&lt;br&gt;V2" style="html=1;strokeWidth=2;shape=manualInput;whiteSpace=wrap;rounded=1;size=26;arcSize=11;" vertex="1" parent="1">
          <mxGeometry x="220" y="160" width="100" height="40" as="geometry" />
        </mxCell>
        <mxCell id="lb5fXpX5OkWd_tXDtIGa-11" style="edgeStyle=orthogonalEdgeStyle;rounded=0;orthogonalLoop=1;jettySize=auto;html=1;exitX=1;exitY=0.5;exitDx=0;exitDy=0;entryX=0;entryY=0.5;entryDx=0;entryDy=0;" edge="1" parent="1" source="lb5fXpX5OkWd_tXDtIGa-5" target="lb5fXpX5OkWd_tXDtIGa-6">
          <mxGeometry relative="1" as="geometry" />
        </mxCell>
        <mxCell id="lb5fXpX5OkWd_tXDtIGa-5" value="&lt;br&gt;V3" style="html=1;strokeWidth=2;shape=manualInput;whiteSpace=wrap;rounded=1;size=26;arcSize=11;" vertex="1" parent="1">
          <mxGeometry x="340" y="160" width="100" height="40" as="geometry" />
        </mxCell>
        <mxCell id="lb5fXpX5OkWd_tXDtIGa-12" style="edgeStyle=orthogonalEdgeStyle;rounded=0;orthogonalLoop=1;jettySize=auto;html=1;exitX=1;exitY=0.5;exitDx=0;exitDy=0;entryX=0;entryY=0.5;entryDx=0;entryDy=0;" edge="1" parent="1" source="lb5fXpX5OkWd_tXDtIGa-6" target="lb5fXpX5OkWd_tXDtIGa-7">
          <mxGeometry relative="1" as="geometry" />
        </mxCell>
        <mxCell id="lb5fXpX5OkWd_tXDtIGa-6" value="&lt;br&gt;V4" style="html=1;strokeWidth=2;shape=manualInput;whiteSpace=wrap;rounded=1;size=26;arcSize=11;" vertex="1" parent="1">
          <mxGeometry x="460" y="160" width="100" height="40" as="geometry" />
        </mxCell>
        <mxCell id="lb5fXpX5OkWd_tXDtIGa-13" style="edgeStyle=orthogonalEdgeStyle;rounded=0;orthogonalLoop=1;jettySize=auto;html=1;exitX=0.5;exitY=1;exitDx=0;exitDy=0;entryX=0.5;entryY=0;entryDx=0;entryDy=0;" edge="1" parent="1" source="lb5fXpX5OkWd_tXDtIGa-7" target="lb5fXpX5OkWd_tXDtIGa-14">
          <mxGeometry relative="1" as="geometry">
            <mxPoint x="200" y="250" as="targetPoint" />
          </mxGeometry>
        </mxCell>
        <mxCell id="lb5fXpX5OkWd_tXDtIGa-7" value="&lt;br&gt;V5" style="html=1;strokeWidth=2;shape=manualInput;whiteSpace=wrap;rounded=1;size=26;arcSize=11;" vertex="1" parent="1">
          <mxGeometry x="590" y="160" width="100" height="40" as="geometry" />
        </mxCell>
        <mxCell id="lb5fXpX5OkWd_tXDtIGa-14" value="MAX = V1" style="rounded=1;whiteSpace=wrap;html=1;absoluteArcSize=1;arcSize=14;strokeWidth=2;" vertex="1" parent="1">
          <mxGeometry x="150" y="260" width="100" height="40" as="geometry" />
        </mxCell>
        <mxCell id="lb5fXpX5OkWd_tXDtIGa-18" style="edgeStyle=orthogonalEdgeStyle;rounded=0;orthogonalLoop=1;jettySize=auto;html=1;exitX=1;exitY=0.5;exitDx=0;exitDy=0;exitPerimeter=0;entryX=0.5;entryY=0;entryDx=0;entryDy=0;" edge="1" parent="1" source="lb5fXpX5OkWd_tXDtIGa-15" target="lb5fXpX5OkWd_tXDtIGa-16">
          <mxGeometry relative="1" as="geometry" />
        </mxCell>
        <mxCell id="lb5fXpX5OkWd_tXDtIGa-42" value="V" style="edgeLabel;html=1;align=center;verticalAlign=middle;resizable=0;points=[];" vertex="1" connectable="0" parent="lb5fXpX5OkWd_tXDtIGa-18">
          <mxGeometry x="0.2375" y="-1" relative="1" as="geometry">
            <mxPoint as="offset" />
          </mxGeometry>
        </mxCell>
        <mxCell id="lb5fXpX5OkWd_tXDtIGa-15" value="V2 &amp;gt; MAX" style="strokeWidth=2;html=1;shape=mxgraph.flowchart.decision;whiteSpace=wrap;" vertex="1" parent="1">
          <mxGeometry x="150" y="340" width="100" height="100" as="geometry" />
        </mxCell>
        <mxCell id="lb5fXpX5OkWd_tXDtIGa-16" value="MAX = V2" style="rounded=1;whiteSpace=wrap;html=1;absoluteArcSize=1;arcSize=14;strokeWidth=2;" vertex="1" parent="1">
          <mxGeometry x="240" y="430" width="100" height="40" as="geometry" />
        </mxCell>
        <mxCell id="lb5fXpX5OkWd_tXDtIGa-17" value="" style="strokeWidth=2;html=1;shape=mxgraph.flowchart.start_2;whiteSpace=wrap;" vertex="1" parent="1">
          <mxGeometry x="190" y="490" width="20" height="20" as="geometry" />
        </mxCell>
        <mxCell id="lb5fXpX5OkWd_tXDtIGa-19" style="edgeStyle=orthogonalEdgeStyle;rounded=0;orthogonalLoop=1;jettySize=auto;html=1;exitX=0;exitY=0.5;exitDx=0;exitDy=0;exitPerimeter=0;entryX=0;entryY=0.5;entryDx=0;entryDy=0;entryPerimeter=0;" edge="1" parent="1" source="lb5fXpX5OkWd_tXDtIGa-15" target="lb5fXpX5OkWd_tXDtIGa-17">
          <mxGeometry relative="1" as="geometry" />
        </mxCell>
        <mxCell id="lb5fXpX5OkWd_tXDtIGa-20" style="edgeStyle=orthogonalEdgeStyle;rounded=0;orthogonalLoop=1;jettySize=auto;html=1;exitX=0.5;exitY=1;exitDx=0;exitDy=0;entryX=1;entryY=0.5;entryDx=0;entryDy=0;entryPerimeter=0;" edge="1" parent="1" source="lb5fXpX5OkWd_tXDtIGa-16" target="lb5fXpX5OkWd_tXDtIGa-17">
          <mxGeometry relative="1" as="geometry" />
        </mxCell>
        <mxCell id="lb5fXpX5OkWd_tXDtIGa-21" style="edgeStyle=orthogonalEdgeStyle;rounded=0;orthogonalLoop=1;jettySize=auto;html=1;exitX=1;exitY=0.5;exitDx=0;exitDy=0;exitPerimeter=0;entryX=0.5;entryY=0;entryDx=0;entryDy=0;" edge="1" parent="1" source="lb5fXpX5OkWd_tXDtIGa-22" target="lb5fXpX5OkWd_tXDtIGa-23">
          <mxGeometry relative="1" as="geometry" />
        </mxCell>
        <mxCell id="lb5fXpX5OkWd_tXDtIGa-43" value="V" style="edgeLabel;html=1;align=center;verticalAlign=middle;resizable=0;points=[];" vertex="1" connectable="0" parent="lb5fXpX5OkWd_tXDtIGa-21">
          <mxGeometry x="0.2167" y="3" relative="1" as="geometry">
            <mxPoint as="offset" />
          </mxGeometry>
        </mxCell>
        <mxCell id="lb5fXpX5OkWd_tXDtIGa-22" value="V3 &amp;gt; MAX" style="strokeWidth=2;html=1;shape=mxgraph.flowchart.decision;whiteSpace=wrap;" vertex="1" parent="1">
          <mxGeometry x="150" y="530" width="100" height="100" as="geometry" />
        </mxCell>
        <mxCell id="lb5fXpX5OkWd_tXDtIGa-23" value="MAX = V3" style="rounded=1;whiteSpace=wrap;html=1;absoluteArcSize=1;arcSize=14;strokeWidth=2;" vertex="1" parent="1">
          <mxGeometry x="240" y="620" width="100" height="40" as="geometry" />
        </mxCell>
        <mxCell id="lb5fXpX5OkWd_tXDtIGa-24" value="" style="strokeWidth=2;html=1;shape=mxgraph.flowchart.start_2;whiteSpace=wrap;" vertex="1" parent="1">
          <mxGeometry x="190" y="680" width="20" height="20" as="geometry" />
        </mxCell>
        <mxCell id="lb5fXpX5OkWd_tXDtIGa-25" style="edgeStyle=orthogonalEdgeStyle;rounded=0;orthogonalLoop=1;jettySize=auto;html=1;exitX=0;exitY=0.5;exitDx=0;exitDy=0;exitPerimeter=0;entryX=0;entryY=0.5;entryDx=0;entryDy=0;entryPerimeter=0;" edge="1" parent="1" source="lb5fXpX5OkWd_tXDtIGa-22" target="lb5fXpX5OkWd_tXDtIGa-24">
          <mxGeometry relative="1" as="geometry" />
        </mxCell>
        <mxCell id="lb5fXpX5OkWd_tXDtIGa-26" style="edgeStyle=orthogonalEdgeStyle;rounded=0;orthogonalLoop=1;jettySize=auto;html=1;exitX=0.5;exitY=1;exitDx=0;exitDy=0;entryX=1;entryY=0.5;entryDx=0;entryDy=0;entryPerimeter=0;" edge="1" parent="1" source="lb5fXpX5OkWd_tXDtIGa-23" target="lb5fXpX5OkWd_tXDtIGa-24">
          <mxGeometry relative="1" as="geometry" />
        </mxCell>
        <mxCell id="lb5fXpX5OkWd_tXDtIGa-27" style="edgeStyle=orthogonalEdgeStyle;rounded=0;orthogonalLoop=1;jettySize=auto;html=1;exitX=0.5;exitY=1;exitDx=0;exitDy=0;exitPerimeter=0;entryX=0.5;entryY=0;entryDx=0;entryDy=0;entryPerimeter=0;" edge="1" parent="1" source="lb5fXpX5OkWd_tXDtIGa-17" target="lb5fXpX5OkWd_tXDtIGa-22">
          <mxGeometry relative="1" as="geometry" />
        </mxCell>
        <mxCell id="lb5fXpX5OkWd_tXDtIGa-28" style="edgeStyle=orthogonalEdgeStyle;rounded=0;orthogonalLoop=1;jettySize=auto;html=1;exitX=1;exitY=0.5;exitDx=0;exitDy=0;exitPerimeter=0;entryX=0.5;entryY=0;entryDx=0;entryDy=0;" edge="1" parent="1" source="lb5fXpX5OkWd_tXDtIGa-29" target="lb5fXpX5OkWd_tXDtIGa-30">
          <mxGeometry relative="1" as="geometry" />
        </mxCell>
        <mxCell id="lb5fXpX5OkWd_tXDtIGa-44" value="V" style="edgeLabel;html=1;align=center;verticalAlign=middle;resizable=0;points=[];" vertex="1" connectable="0" parent="lb5fXpX5OkWd_tXDtIGa-28">
          <mxGeometry x="0.1542" y="1" relative="1" as="geometry">
            <mxPoint as="offset" />
          </mxGeometry>
        </mxCell>
        <mxCell id="lb5fXpX5OkWd_tXDtIGa-29" value="V4 &amp;gt; MAX" style="strokeWidth=2;html=1;shape=mxgraph.flowchart.decision;whiteSpace=wrap;" vertex="1" parent="1">
          <mxGeometry x="510" y="340" width="100" height="100" as="geometry" />
        </mxCell>
        <mxCell id="lb5fXpX5OkWd_tXDtIGa-30" value="MAX = V4" style="rounded=1;whiteSpace=wrap;html=1;absoluteArcSize=1;arcSize=14;strokeWidth=2;" vertex="1" parent="1">
          <mxGeometry x="600" y="430" width="100" height="40" as="geometry" />
        </mxCell>
        <mxCell id="lb5fXpX5OkWd_tXDtIGa-31" value="" style="strokeWidth=2;html=1;shape=mxgraph.flowchart.start_2;whiteSpace=wrap;" vertex="1" parent="1">
          <mxGeometry x="550" y="490" width="20" height="20" as="geometry" />
        </mxCell>
        <mxCell id="lb5fXpX5OkWd_tXDtIGa-32" style="edgeStyle=orthogonalEdgeStyle;rounded=0;orthogonalLoop=1;jettySize=auto;html=1;exitX=0;exitY=0.5;exitDx=0;exitDy=0;exitPerimeter=0;entryX=0;entryY=0.5;entryDx=0;entryDy=0;entryPerimeter=0;" edge="1" parent="1" source="lb5fXpX5OkWd_tXDtIGa-29" target="lb5fXpX5OkWd_tXDtIGa-31">
          <mxGeometry relative="1" as="geometry" />
        </mxCell>
        <mxCell id="lb5fXpX5OkWd_tXDtIGa-33" style="edgeStyle=orthogonalEdgeStyle;rounded=0;orthogonalLoop=1;jettySize=auto;html=1;exitX=0.5;exitY=1;exitDx=0;exitDy=0;entryX=1;entryY=0.5;entryDx=0;entryDy=0;entryPerimeter=0;" edge="1" parent="1" source="lb5fXpX5OkWd_tXDtIGa-30" target="lb5fXpX5OkWd_tXDtIGa-31">
          <mxGeometry relative="1" as="geometry" />
        </mxCell>
        <mxCell id="lb5fXpX5OkWd_tXDtIGa-34" style="edgeStyle=orthogonalEdgeStyle;rounded=0;orthogonalLoop=1;jettySize=auto;html=1;exitX=0.5;exitY=1;exitDx=0;exitDy=0;exitPerimeter=0;entryX=0.5;entryY=0;entryDx=0;entryDy=0;entryPerimeter=0;" edge="1" parent="1" source="lb5fXpX5OkWd_tXDtIGa-24" target="lb5fXpX5OkWd_tXDtIGa-29">
          <mxGeometry relative="1" as="geometry" />
        </mxCell>
        <mxCell id="lb5fXpX5OkWd_tXDtIGa-35" value="V" style="edgeStyle=orthogonalEdgeStyle;rounded=0;orthogonalLoop=1;jettySize=auto;html=1;exitX=1;exitY=0.5;exitDx=0;exitDy=0;exitPerimeter=0;entryX=0.5;entryY=0;entryDx=0;entryDy=0;" edge="1" parent="1" source="lb5fXpX5OkWd_tXDtIGa-36" target="lb5fXpX5OkWd_tXDtIGa-37">
          <mxGeometry relative="1" as="geometry" />
        </mxCell>
        <mxCell id="lb5fXpX5OkWd_tXDtIGa-36" value="V5 &amp;gt; MAX" style="strokeWidth=2;html=1;shape=mxgraph.flowchart.decision;whiteSpace=wrap;" vertex="1" parent="1">
          <mxGeometry x="510" y="540" width="100" height="100" as="geometry" />
        </mxCell>
        <mxCell id="lb5fXpX5OkWd_tXDtIGa-37" value="MAX = V5" style="rounded=1;whiteSpace=wrap;html=1;absoluteArcSize=1;arcSize=14;strokeWidth=2;" vertex="1" parent="1">
          <mxGeometry x="600" y="630" width="100" height="40" as="geometry" />
        </mxCell>
        <mxCell id="lb5fXpX5OkWd_tXDtIGa-50" style="edgeStyle=orthogonalEdgeStyle;rounded=0;orthogonalLoop=1;jettySize=auto;html=1;exitX=0.5;exitY=1;exitDx=0;exitDy=0;exitPerimeter=0;entryX=0.5;entryY=0;entryDx=0;entryDy=0;" edge="1" parent="1" source="lb5fXpX5OkWd_tXDtIGa-38" target="lb5fXpX5OkWd_tXDtIGa-45">
          <mxGeometry relative="1" as="geometry" />
        </mxCell>
        <mxCell id="lb5fXpX5OkWd_tXDtIGa-38" value="" style="strokeWidth=2;html=1;shape=mxgraph.flowchart.start_2;whiteSpace=wrap;" vertex="1" parent="1">
          <mxGeometry x="550" y="690" width="20" height="20" as="geometry" />
        </mxCell>
        <mxCell id="lb5fXpX5OkWd_tXDtIGa-39" style="edgeStyle=orthogonalEdgeStyle;rounded=0;orthogonalLoop=1;jettySize=auto;html=1;exitX=0;exitY=0.5;exitDx=0;exitDy=0;exitPerimeter=0;entryX=0;entryY=0.5;entryDx=0;entryDy=0;entryPerimeter=0;" edge="1" parent="1" source="lb5fXpX5OkWd_tXDtIGa-36" target="lb5fXpX5OkWd_tXDtIGa-38">
          <mxGeometry relative="1" as="geometry" />
        </mxCell>
        <mxCell id="lb5fXpX5OkWd_tXDtIGa-40" style="edgeStyle=orthogonalEdgeStyle;rounded=0;orthogonalLoop=1;jettySize=auto;html=1;exitX=0.5;exitY=1;exitDx=0;exitDy=0;entryX=1;entryY=0.5;entryDx=0;entryDy=0;entryPerimeter=0;" edge="1" parent="1" source="lb5fXpX5OkWd_tXDtIGa-37" target="lb5fXpX5OkWd_tXDtIGa-38">
          <mxGeometry relative="1" as="geometry" />
        </mxCell>
        <mxCell id="lb5fXpX5OkWd_tXDtIGa-41" style="edgeStyle=orthogonalEdgeStyle;rounded=0;orthogonalLoop=1;jettySize=auto;html=1;exitX=0.5;exitY=1;exitDx=0;exitDy=0;exitPerimeter=0;entryX=0.5;entryY=0;entryDx=0;entryDy=0;entryPerimeter=0;" edge="1" parent="1" source="lb5fXpX5OkWd_tXDtIGa-31" target="lb5fXpX5OkWd_tXDtIGa-36">
          <mxGeometry relative="1" as="geometry" />
        </mxCell>
        <mxCell id="lb5fXpX5OkWd_tXDtIGa-45" value="MAX" style="shape=parallelogram;html=1;strokeWidth=2;perimeter=parallelogramPerimeter;whiteSpace=wrap;rounded=1;arcSize=12;size=0.23;" vertex="1" parent="1">
          <mxGeometry x="510" y="730" width="100" height="40" as="geometry" />
        </mxCell>
        <mxCell id="lb5fXpX5OkWd_tXDtIGa-46" value="FINE" style="strokeWidth=2;html=1;shape=mxgraph.flowchart.start_1;whiteSpace=wrap;" vertex="1" parent="1">
          <mxGeometry x="510" y="800" width="100" height="60" as="geometry" />
        </mxCell>
        <mxCell id="lb5fXpX5OkWd_tXDtIGa-49" style="edgeStyle=orthogonalEdgeStyle;rounded=0;orthogonalLoop=1;jettySize=auto;html=1;exitX=0.5;exitY=1;exitDx=0;exitDy=0;entryX=0.5;entryY=0;entryDx=0;entryDy=0;entryPerimeter=0;" edge="1" parent="1" source="lb5fXpX5OkWd_tXDtIGa-45" target="lb5fXpX5OkWd_tXDtIGa-46">
          <mxGeometry relative="1" as="geometry" />
        </mxCell>
        <mxCell id="lb5fXpX5OkWd_tXDtIGa-51" style="edgeStyle=orthogonalEdgeStyle;rounded=0;orthogonalLoop=1;jettySize=auto;html=1;exitX=0.5;exitY=1;exitDx=0;exitDy=0;entryX=0.5;entryY=0;entryDx=0;entryDy=0;entryPerimeter=0;" edge="1" parent="1" source="lb5fXpX5OkWd_tXDtIGa-14" target="lb5fXpX5OkWd_tXDtIGa-15">
          <mxGeometry relative="1" as="geometry" />
        </mxCell>
        <mxCell id="lb5fXpX5OkWd_tXDtIGa-52" value="V1=5&amp;nbsp; V2=7&amp;nbsp; V3=4&amp;nbsp; V4=9 V5=2" style="text;html=1;strokeColor=none;fillColor=none;align=center;verticalAlign=middle;whiteSpace=wrap;rounded=0;fontSize=18;" vertex="1" parent="1">
          <mxGeometry x="460" y="240" width="340" height="40" as="geometry" />
        </mxCell>
      </root>
    </mxGraphModel>
  </diagram>
  <diagram id="QtvqM1IozhnJyBTtg4lb" name="Iterative">
    <mxGraphModel dx="682" dy="415" grid="1" gridSize="10" guides="1" tooltips="1" connect="1" arrows="1" fold="1" page="1" pageScale="1" pageWidth="827" pageHeight="1169" math="0" shadow="0">
      <root>
        <mxCell id="0" />
        <mxCell id="1" parent="0" />
        <mxCell id="VkBX_m3SWCcpJNaXKUnA-1" value="X = 1" style="rounded=1;whiteSpace=wrap;html=1;absoluteArcSize=1;arcSize=14;strokeWidth=2;" vertex="1" parent="1">
          <mxGeometry x="120" y="40" width="100" height="40" as="geometry" />
        </mxCell>
        <mxCell id="VkBX_m3SWCcpJNaXKUnA-7" style="edgeStyle=orthogonalEdgeStyle;rounded=0;orthogonalLoop=1;jettySize=auto;html=1;exitX=1;exitY=0.5;exitDx=0;exitDy=0;exitPerimeter=0;entryX=0.5;entryY=0;entryDx=0;entryDy=0;" edge="1" parent="1" source="VkBX_m3SWCcpJNaXKUnA-2" target="VkBX_m3SWCcpJNaXKUnA-3">
          <mxGeometry relative="1" as="geometry" />
        </mxCell>
        <mxCell id="VkBX_m3SWCcpJNaXKUnA-11" value="V" style="edgeLabel;html=1;align=center;verticalAlign=middle;resizable=0;points=[];" vertex="1" connectable="0" parent="VkBX_m3SWCcpJNaXKUnA-7">
          <mxGeometry x="0.0915" relative="1" as="geometry">
            <mxPoint as="offset" />
          </mxGeometry>
        </mxCell>
        <mxCell id="VkBX_m3SWCcpJNaXKUnA-9" style="edgeStyle=orthogonalEdgeStyle;rounded=0;orthogonalLoop=1;jettySize=auto;html=1;exitX=0;exitY=0.5;exitDx=0;exitDy=0;exitPerimeter=0;entryX=0.5;entryY=0;entryDx=0;entryDy=0;" edge="1" parent="1" source="VkBX_m3SWCcpJNaXKUnA-2" target="VkBX_m3SWCcpJNaXKUnA-4">
          <mxGeometry relative="1" as="geometry" />
        </mxCell>
        <mxCell id="VkBX_m3SWCcpJNaXKUnA-12" value="F" style="edgeLabel;html=1;align=center;verticalAlign=middle;resizable=0;points=[];" vertex="1" connectable="0" parent="VkBX_m3SWCcpJNaXKUnA-9">
          <mxGeometry x="-0.0047" relative="1" as="geometry">
            <mxPoint as="offset" />
          </mxGeometry>
        </mxCell>
        <mxCell id="VkBX_m3SWCcpJNaXKUnA-2" value="X &amp;lt; 10" style="strokeWidth=2;html=1;shape=mxgraph.flowchart.decision;whiteSpace=wrap;" vertex="1" parent="1">
          <mxGeometry x="120" y="100" width="100" height="50" as="geometry" />
        </mxCell>
        <mxCell id="VkBX_m3SWCcpJNaXKUnA-3" value="X = X * 2" style="rounded=1;whiteSpace=wrap;html=1;absoluteArcSize=1;arcSize=14;strokeWidth=2;" vertex="1" parent="1">
          <mxGeometry x="220" y="150" width="100" height="40" as="geometry" />
        </mxCell>
        <mxCell id="VkBX_m3SWCcpJNaXKUnA-4" value="X = X - 5" style="rounded=1;whiteSpace=wrap;html=1;absoluteArcSize=1;arcSize=14;strokeWidth=2;" vertex="1" parent="1">
          <mxGeometry x="10" y="150" width="100" height="40" as="geometry" />
        </mxCell>
        <mxCell id="VkBX_m3SWCcpJNaXKUnA-37" style="edgeStyle=orthogonalEdgeStyle;rounded=0;orthogonalLoop=1;jettySize=auto;html=1;exitX=0.5;exitY=1;exitDx=0;exitDy=0;exitPerimeter=0;" edge="1" parent="1" source="VkBX_m3SWCcpJNaXKUnA-5">
          <mxGeometry relative="1" as="geometry">
            <mxPoint x="170" y="240" as="targetPoint" />
          </mxGeometry>
        </mxCell>
        <mxCell id="VkBX_m3SWCcpJNaXKUnA-5" value="" style="strokeWidth=2;html=1;shape=mxgraph.flowchart.start_2;whiteSpace=wrap;" vertex="1" parent="1">
          <mxGeometry x="160" y="200" width="20" height="20" as="geometry" />
        </mxCell>
        <mxCell id="VkBX_m3SWCcpJNaXKUnA-6" style="edgeStyle=orthogonalEdgeStyle;rounded=0;orthogonalLoop=1;jettySize=auto;html=1;exitX=0.5;exitY=1;exitDx=0;exitDy=0;entryX=0.5;entryY=0;entryDx=0;entryDy=0;entryPerimeter=0;" edge="1" parent="1" source="VkBX_m3SWCcpJNaXKUnA-1" target="VkBX_m3SWCcpJNaXKUnA-2">
          <mxGeometry relative="1" as="geometry" />
        </mxCell>
        <mxCell id="VkBX_m3SWCcpJNaXKUnA-8" style="edgeStyle=orthogonalEdgeStyle;rounded=0;orthogonalLoop=1;jettySize=auto;html=1;exitX=0.5;exitY=1;exitDx=0;exitDy=0;entryX=1;entryY=0.5;entryDx=0;entryDy=0;entryPerimeter=0;" edge="1" parent="1" source="VkBX_m3SWCcpJNaXKUnA-3" target="VkBX_m3SWCcpJNaXKUnA-5">
          <mxGeometry relative="1" as="geometry" />
        </mxCell>
        <mxCell id="VkBX_m3SWCcpJNaXKUnA-10" style="edgeStyle=orthogonalEdgeStyle;rounded=0;orthogonalLoop=1;jettySize=auto;html=1;exitX=0.5;exitY=1;exitDx=0;exitDy=0;entryX=0;entryY=0.5;entryDx=0;entryDy=0;entryPerimeter=0;" edge="1" parent="1" source="VkBX_m3SWCcpJNaXKUnA-4" target="VkBX_m3SWCcpJNaXKUnA-5">
          <mxGeometry relative="1" as="geometry" />
        </mxCell>
        <mxCell id="VkBX_m3SWCcpJNaXKUnA-13" value="X = 1" style="rounded=1;whiteSpace=wrap;html=1;absoluteArcSize=1;arcSize=14;strokeWidth=2;fillColor=#ffe6cc;strokeColor=#d79b00;" vertex="1" parent="1">
          <mxGeometry x="180" y="280" width="100" height="40" as="geometry" />
        </mxCell>
        <mxCell id="VkBX_m3SWCcpJNaXKUnA-23" style="edgeStyle=orthogonalEdgeStyle;rounded=0;orthogonalLoop=1;jettySize=auto;html=1;exitX=0;exitY=0.5;exitDx=0;exitDy=0;exitPerimeter=0;" edge="1" parent="1" source="VkBX_m3SWCcpJNaXKUnA-14">
          <mxGeometry relative="1" as="geometry">
            <mxPoint x="140" y="440.0000000000001" as="targetPoint" />
          </mxGeometry>
        </mxCell>
        <mxCell id="VkBX_m3SWCcpJNaXKUnA-14" value="X &amp;lt; 10" style="strokeWidth=2;html=1;shape=mxgraph.flowchart.decision;whiteSpace=wrap;fillColor=#ffe6cc;strokeColor=#d79b00;" vertex="1" parent="1">
          <mxGeometry x="180" y="380" width="100" height="50" as="geometry" />
        </mxCell>
        <mxCell id="VkBX_m3SWCcpJNaXKUnA-15" value="" style="strokeWidth=2;html=1;shape=mxgraph.flowchart.start_2;whiteSpace=wrap;" vertex="1" parent="1">
          <mxGeometry x="220" y="340" width="20" height="20" as="geometry" />
        </mxCell>
        <mxCell id="VkBX_m3SWCcpJNaXKUnA-21" style="edgeStyle=orthogonalEdgeStyle;rounded=0;orthogonalLoop=1;jettySize=auto;html=1;exitX=0.5;exitY=1;exitDx=0;exitDy=0;entryX=0.5;entryY=0;entryDx=0;entryDy=0;" edge="1" parent="1" source="VkBX_m3SWCcpJNaXKUnA-16" target="VkBX_m3SWCcpJNaXKUnA-17">
          <mxGeometry relative="1" as="geometry" />
        </mxCell>
        <mxCell id="VkBX_m3SWCcpJNaXKUnA-16" value="X" style="shape=parallelogram;html=1;strokeWidth=2;perimeter=parallelogramPerimeter;whiteSpace=wrap;rounded=1;arcSize=12;size=0.23;" vertex="1" parent="1">
          <mxGeometry x="270" y="440" width="100" height="40" as="geometry" />
        </mxCell>
        <mxCell id="VkBX_m3SWCcpJNaXKUnA-17" value="X = X + 1" style="rounded=1;whiteSpace=wrap;html=1;absoluteArcSize=1;arcSize=14;strokeWidth=2;fillColor=#ffe6cc;strokeColor=#d79b00;" vertex="1" parent="1">
          <mxGeometry x="270" y="520" width="100" height="40" as="geometry" />
        </mxCell>
        <mxCell id="VkBX_m3SWCcpJNaXKUnA-18" style="edgeStyle=orthogonalEdgeStyle;rounded=0;orthogonalLoop=1;jettySize=auto;html=1;exitX=0.5;exitY=1;exitDx=0;exitDy=0;entryX=0.5;entryY=0;entryDx=0;entryDy=0;entryPerimeter=0;" edge="1" parent="1" source="VkBX_m3SWCcpJNaXKUnA-13" target="VkBX_m3SWCcpJNaXKUnA-15">
          <mxGeometry relative="1" as="geometry" />
        </mxCell>
        <mxCell id="VkBX_m3SWCcpJNaXKUnA-19" style="edgeStyle=orthogonalEdgeStyle;rounded=0;orthogonalLoop=1;jettySize=auto;html=1;exitX=0.5;exitY=1;exitDx=0;exitDy=0;exitPerimeter=0;entryX=0.5;entryY=0;entryDx=0;entryDy=0;entryPerimeter=0;" edge="1" parent="1" source="VkBX_m3SWCcpJNaXKUnA-15" target="VkBX_m3SWCcpJNaXKUnA-14">
          <mxGeometry relative="1" as="geometry" />
        </mxCell>
        <mxCell id="VkBX_m3SWCcpJNaXKUnA-20" style="edgeStyle=orthogonalEdgeStyle;rounded=0;orthogonalLoop=1;jettySize=auto;html=1;exitX=1;exitY=0.5;exitDx=0;exitDy=0;exitPerimeter=0;entryX=0.567;entryY=-0.059;entryDx=0;entryDy=0;entryPerimeter=0;" edge="1" parent="1" source="VkBX_m3SWCcpJNaXKUnA-14" target="VkBX_m3SWCcpJNaXKUnA-16">
          <mxGeometry relative="1" as="geometry" />
        </mxCell>
        <mxCell id="VkBX_m3SWCcpJNaXKUnA-24" value="V" style="edgeLabel;html=1;align=center;verticalAlign=middle;resizable=0;points=[];" vertex="1" connectable="0" parent="VkBX_m3SWCcpJNaXKUnA-20">
          <mxGeometry x="-0.6237" y="-1" relative="1" as="geometry">
            <mxPoint as="offset" />
          </mxGeometry>
        </mxCell>
        <mxCell id="VkBX_m3SWCcpJNaXKUnA-22" style="edgeStyle=orthogonalEdgeStyle;rounded=0;orthogonalLoop=1;jettySize=auto;html=1;exitX=0.5;exitY=1;exitDx=0;exitDy=0;entryX=1;entryY=0.5;entryDx=0;entryDy=0;entryPerimeter=0;" edge="1" parent="1" source="VkBX_m3SWCcpJNaXKUnA-17" target="VkBX_m3SWCcpJNaXKUnA-15">
          <mxGeometry relative="1" as="geometry">
            <Array as="points">
              <mxPoint x="320" y="580" />
              <mxPoint x="390" y="580" />
              <mxPoint x="390" y="350" />
            </Array>
          </mxGeometry>
        </mxCell>
        <mxCell id="VkBX_m3SWCcpJNaXKUnA-25" value="X = 1" style="rounded=1;whiteSpace=wrap;html=1;absoluteArcSize=1;arcSize=14;strokeWidth=2;fillColor=#f8cecc;strokeColor=#b85450;" vertex="1" parent="1">
          <mxGeometry x="580" y="280" width="100" height="40" as="geometry" />
        </mxCell>
        <mxCell id="VkBX_m3SWCcpJNaXKUnA-26" style="edgeStyle=orthogonalEdgeStyle;rounded=0;orthogonalLoop=1;jettySize=auto;html=1;exitX=0.5;exitY=1;exitDx=0;exitDy=0;entryX=0.5;entryY=0;entryDx=0;entryDy=0;" edge="1" parent="1" source="VkBX_m3SWCcpJNaXKUnA-27" target="VkBX_m3SWCcpJNaXKUnA-28">
          <mxGeometry relative="1" as="geometry" />
        </mxCell>
        <mxCell id="VkBX_m3SWCcpJNaXKUnA-27" value="X" style="shape=parallelogram;html=1;strokeWidth=2;perimeter=parallelogramPerimeter;whiteSpace=wrap;rounded=1;arcSize=12;size=0.23;" vertex="1" parent="1">
          <mxGeometry x="580" y="380" width="100" height="40" as="geometry" />
        </mxCell>
        <mxCell id="VkBX_m3SWCcpJNaXKUnA-28" value="X = X + 1" style="rounded=1;whiteSpace=wrap;html=1;absoluteArcSize=1;arcSize=14;strokeWidth=2;fillColor=#f8cecc;strokeColor=#b85450;" vertex="1" parent="1">
          <mxGeometry x="580" y="442" width="100" height="40" as="geometry" />
        </mxCell>
        <mxCell id="VkBX_m3SWCcpJNaXKUnA-35" style="edgeStyle=orthogonalEdgeStyle;rounded=0;orthogonalLoop=1;jettySize=auto;html=1;exitX=0;exitY=0.5;exitDx=0;exitDy=0;exitPerimeter=0;" edge="1" parent="1" source="VkBX_m3SWCcpJNaXKUnA-29">
          <mxGeometry relative="1" as="geometry">
            <mxPoint x="540" y="600" as="targetPoint" />
          </mxGeometry>
        </mxCell>
        <mxCell id="VkBX_m3SWCcpJNaXKUnA-29" value="X &amp;lt; 10" style="strokeWidth=2;html=1;shape=mxgraph.flowchart.decision;whiteSpace=wrap;fillColor=#f8cecc;strokeColor=#b85450;" vertex="1" parent="1">
          <mxGeometry x="580" y="517" width="100" height="50" as="geometry" />
        </mxCell>
        <mxCell id="VkBX_m3SWCcpJNaXKUnA-32" style="edgeStyle=orthogonalEdgeStyle;rounded=0;orthogonalLoop=1;jettySize=auto;html=1;exitX=0.5;exitY=1;exitDx=0;exitDy=0;exitPerimeter=0;entryX=0.5;entryY=0;entryDx=0;entryDy=0;" edge="1" parent="1" source="VkBX_m3SWCcpJNaXKUnA-30" target="VkBX_m3SWCcpJNaXKUnA-27">
          <mxGeometry relative="1" as="geometry" />
        </mxCell>
        <mxCell id="VkBX_m3SWCcpJNaXKUnA-30" value="" style="strokeWidth=2;html=1;shape=mxgraph.flowchart.start_2;whiteSpace=wrap;" vertex="1" parent="1">
          <mxGeometry x="620" y="340" width="20" height="20" as="geometry" />
        </mxCell>
        <mxCell id="VkBX_m3SWCcpJNaXKUnA-31" style="edgeStyle=orthogonalEdgeStyle;rounded=0;orthogonalLoop=1;jettySize=auto;html=1;exitX=0.5;exitY=1;exitDx=0;exitDy=0;entryX=0.5;entryY=0;entryDx=0;entryDy=0;entryPerimeter=0;" edge="1" parent="1" source="VkBX_m3SWCcpJNaXKUnA-25" target="VkBX_m3SWCcpJNaXKUnA-30">
          <mxGeometry relative="1" as="geometry" />
        </mxCell>
        <mxCell id="VkBX_m3SWCcpJNaXKUnA-33" style="edgeStyle=orthogonalEdgeStyle;rounded=0;orthogonalLoop=1;jettySize=auto;html=1;exitX=0.5;exitY=1;exitDx=0;exitDy=0;entryX=0.5;entryY=0;entryDx=0;entryDy=0;entryPerimeter=0;" edge="1" parent="1" source="VkBX_m3SWCcpJNaXKUnA-28" target="VkBX_m3SWCcpJNaXKUnA-29">
          <mxGeometry relative="1" as="geometry" />
        </mxCell>
        <mxCell id="VkBX_m3SWCcpJNaXKUnA-34" style="edgeStyle=orthogonalEdgeStyle;rounded=0;orthogonalLoop=1;jettySize=auto;html=1;exitX=1;exitY=0.5;exitDx=0;exitDy=0;exitPerimeter=0;entryX=1;entryY=0.5;entryDx=0;entryDy=0;entryPerimeter=0;" edge="1" parent="1" source="VkBX_m3SWCcpJNaXKUnA-29" target="VkBX_m3SWCcpJNaXKUnA-30">
          <mxGeometry relative="1" as="geometry" />
        </mxCell>
        <mxCell id="VkBX_m3SWCcpJNaXKUnA-36" value="V" style="edgeLabel;html=1;align=center;verticalAlign=middle;resizable=0;points=[];" vertex="1" connectable="0" parent="VkBX_m3SWCcpJNaXKUnA-34">
          <mxGeometry x="-0.6029" y="3" relative="1" as="geometry">
            <mxPoint as="offset" />
          </mxGeometry>
        </mxCell>
      </root>
    </mxGraphModel>
  </diagram>
  <diagram id="X8HyGvIdPsHuEveUqBzV" name="Pagina-5">
    <mxGraphModel dx="1231" dy="727" grid="1" gridSize="10" guides="1" tooltips="1" connect="1" arrows="1" fold="1" page="1" pageScale="1" pageWidth="827" pageHeight="1169" math="0" shadow="0">
      <root>
        <mxCell id="0" />
        <mxCell id="1" parent="0" />
        <mxCell id="SgoAPoHnbbTUfLQEKpRL-2" value="&lt;h1&gt;Scambio valori&lt;/h1&gt;&lt;p&gt;Testo su classroom: esercizio 1&lt;/p&gt;" style="text;html=1;strokeColor=#6c8ebf;fillColor=#dae8fc;spacing=5;spacingTop=-20;whiteSpace=wrap;overflow=hidden;rounded=0;" vertex="1" parent="1">
          <mxGeometry x="10" y="10" width="190" height="80" as="geometry" />
        </mxCell>
        <mxCell id="6LM1s893S27g-6g2ApPn-14" style="edgeStyle=orthogonalEdgeStyle;rounded=0;orthogonalLoop=1;jettySize=auto;html=1;exitX=0.5;exitY=1;exitDx=0;exitDy=0;exitPerimeter=0;entryX=0.5;entryY=0;entryDx=0;entryDy=0;" edge="1" parent="1" source="6LM1s893S27g-6g2ApPn-1" target="6LM1s893S27g-6g2ApPn-10">
          <mxGeometry relative="1" as="geometry" />
        </mxCell>
        <mxCell id="6LM1s893S27g-6g2ApPn-1" value="inizio" style="strokeWidth=2;html=1;shape=mxgraph.flowchart.start_1;whiteSpace=wrap;fontSize=10;" vertex="1" parent="1">
          <mxGeometry x="350" y="40" width="100" height="40" as="geometry" />
        </mxCell>
        <mxCell id="6LM1s893S27g-6g2ApPn-24" style="edgeStyle=orthogonalEdgeStyle;rounded=0;orthogonalLoop=1;jettySize=auto;html=1;exitX=1;exitY=0.5;exitDx=0;exitDy=0;exitPerimeter=0;entryX=0.5;entryY=0;entryDx=0;entryDy=0;" edge="1" parent="1" source="6LM1s893S27g-6g2ApPn-3" target="6LM1s893S27g-6g2ApPn-21">
          <mxGeometry relative="1" as="geometry" />
        </mxCell>
        <mxCell id="6LM1s893S27g-6g2ApPn-25" value="V" style="edgeLabel;html=1;align=center;verticalAlign=middle;resizable=0;points=[];" vertex="1" connectable="0" parent="6LM1s893S27g-6g2ApPn-24">
          <mxGeometry x="0.4073" relative="1" as="geometry">
            <mxPoint as="offset" />
          </mxGeometry>
        </mxCell>
        <mxCell id="6LM1s893S27g-6g2ApPn-3" value="n1 &amp;gt; n2" style="strokeWidth=2;html=1;shape=mxgraph.flowchart.decision;whiteSpace=wrap;fontSize=10;" vertex="1" parent="1">
          <mxGeometry x="360" y="320" width="80" height="80" as="geometry" />
        </mxCell>
        <mxCell id="6LM1s893S27g-6g2ApPn-15" style="edgeStyle=orthogonalEdgeStyle;rounded=0;orthogonalLoop=1;jettySize=auto;html=1;exitX=1;exitY=0.5;exitDx=0;exitDy=0;entryX=0;entryY=0.5;entryDx=0;entryDy=0;" edge="1" parent="1" source="6LM1s893S27g-6g2ApPn-10" target="6LM1s893S27g-6g2ApPn-11">
          <mxGeometry relative="1" as="geometry" />
        </mxCell>
        <mxCell id="6LM1s893S27g-6g2ApPn-10" value="Inserisci n1" style="shape=parallelogram;html=1;strokeWidth=2;perimeter=parallelogramPerimeter;whiteSpace=wrap;rounded=1;arcSize=12;size=0.23;fontSize=10;" vertex="1" parent="1">
          <mxGeometry x="350" y="110" width="100" height="40" as="geometry" />
        </mxCell>
        <mxCell id="6LM1s893S27g-6g2ApPn-16" style="edgeStyle=orthogonalEdgeStyle;rounded=0;orthogonalLoop=1;jettySize=auto;html=1;exitX=0.5;exitY=1;exitDx=0;exitDy=0;entryX=0.5;entryY=0;entryDx=0;entryDy=0;" edge="1" parent="1" source="6LM1s893S27g-6g2ApPn-11" target="6LM1s893S27g-6g2ApPn-12">
          <mxGeometry relative="1" as="geometry" />
        </mxCell>
        <mxCell id="6LM1s893S27g-6g2ApPn-11" value="&lt;br&gt;n1" style="html=1;strokeWidth=2;shape=manualInput;whiteSpace=wrap;rounded=1;size=26;arcSize=11;fontSize=10;" vertex="1" parent="1">
          <mxGeometry x="480" y="110" width="100" height="40" as="geometry" />
        </mxCell>
        <mxCell id="6LM1s893S27g-6g2ApPn-17" style="edgeStyle=orthogonalEdgeStyle;rounded=0;orthogonalLoop=1;jettySize=auto;html=1;exitX=1;exitY=0.5;exitDx=0;exitDy=0;entryX=0;entryY=0.5;entryDx=0;entryDy=0;" edge="1" parent="1" source="6LM1s893S27g-6g2ApPn-12" target="6LM1s893S27g-6g2ApPn-13">
          <mxGeometry relative="1" as="geometry" />
        </mxCell>
        <mxCell id="6LM1s893S27g-6g2ApPn-12" value="Inserisci n2" style="shape=parallelogram;html=1;strokeWidth=2;perimeter=parallelogramPerimeter;whiteSpace=wrap;rounded=1;arcSize=12;size=0.23;fontSize=10;" vertex="1" parent="1">
          <mxGeometry x="350" y="190" width="100" height="40" as="geometry" />
        </mxCell>
        <mxCell id="6LM1s893S27g-6g2ApPn-13" value="&lt;br&gt;n2" style="html=1;strokeWidth=2;shape=manualInput;whiteSpace=wrap;rounded=1;size=26;arcSize=11;fontSize=10;" vertex="1" parent="1">
          <mxGeometry x="480" y="190" width="100" height="40" as="geometry" />
        </mxCell>
        <mxCell id="6LM1s893S27g-6g2ApPn-18" value="temp = 0" style="rounded=1;whiteSpace=wrap;html=1;absoluteArcSize=1;arcSize=14;strokeWidth=2;fontSize=10;" vertex="1" parent="1">
          <mxGeometry x="346" y="260" width="108" height="30" as="geometry" />
        </mxCell>
        <mxCell id="6LM1s893S27g-6g2ApPn-19" style="edgeStyle=orthogonalEdgeStyle;rounded=0;orthogonalLoop=1;jettySize=auto;html=1;exitX=0.5;exitY=1;exitDx=0;exitDy=0;entryX=0.5;entryY=0;entryDx=0;entryDy=0;" edge="1" parent="1" source="6LM1s893S27g-6g2ApPn-12" target="6LM1s893S27g-6g2ApPn-18">
          <mxGeometry relative="1" as="geometry" />
        </mxCell>
        <mxCell id="6LM1s893S27g-6g2ApPn-20" style="edgeStyle=orthogonalEdgeStyle;rounded=0;orthogonalLoop=1;jettySize=auto;html=1;exitX=0.5;exitY=1;exitDx=0;exitDy=0;entryX=0.5;entryY=0;entryDx=0;entryDy=0;entryPerimeter=0;" edge="1" parent="1" source="6LM1s893S27g-6g2ApPn-18" target="6LM1s893S27g-6g2ApPn-3">
          <mxGeometry relative="1" as="geometry" />
        </mxCell>
        <mxCell id="6LM1s893S27g-6g2ApPn-21" value="temp = n1" style="rounded=1;whiteSpace=wrap;html=1;absoluteArcSize=1;arcSize=14;strokeWidth=2;fontSize=10;" vertex="1" parent="1">
          <mxGeometry x="440" y="400" width="108" height="30" as="geometry" />
        </mxCell>
        <mxCell id="6LM1s893S27g-6g2ApPn-27" style="edgeStyle=orthogonalEdgeStyle;rounded=0;orthogonalLoop=1;jettySize=auto;html=1;exitX=0.5;exitY=1;exitDx=0;exitDy=0;entryX=0.5;entryY=0;entryDx=0;entryDy=0;" edge="1" parent="1" source="6LM1s893S27g-6g2ApPn-22" target="6LM1s893S27g-6g2ApPn-23">
          <mxGeometry relative="1" as="geometry" />
        </mxCell>
        <mxCell id="6LM1s893S27g-6g2ApPn-22" value="n1 = n2" style="rounded=1;whiteSpace=wrap;html=1;absoluteArcSize=1;arcSize=14;strokeWidth=2;fontSize=10;" vertex="1" parent="1">
          <mxGeometry x="440" y="450" width="108" height="30" as="geometry" />
        </mxCell>
        <mxCell id="6LM1s893S27g-6g2ApPn-23" value="n2 = temp" style="rounded=1;whiteSpace=wrap;html=1;absoluteArcSize=1;arcSize=14;strokeWidth=2;fontSize=10;" vertex="1" parent="1">
          <mxGeometry x="440" y="500" width="108" height="30" as="geometry" />
        </mxCell>
        <mxCell id="6LM1s893S27g-6g2ApPn-26" style="edgeStyle=orthogonalEdgeStyle;rounded=0;orthogonalLoop=1;jettySize=auto;html=1;exitX=0.5;exitY=1;exitDx=0;exitDy=0;entryX=0.496;entryY=-0.138;entryDx=0;entryDy=0;entryPerimeter=0;" edge="1" parent="1" source="6LM1s893S27g-6g2ApPn-21" target="6LM1s893S27g-6g2ApPn-22">
          <mxGeometry relative="1" as="geometry" />
        </mxCell>
        <mxCell id="6LM1s893S27g-6g2ApPn-32" style="edgeStyle=orthogonalEdgeStyle;rounded=0;orthogonalLoop=1;jettySize=auto;html=1;exitX=0.5;exitY=1;exitDx=0;exitDy=0;exitPerimeter=0;entryX=0.5;entryY=0;entryDx=0;entryDy=0;" edge="1" parent="1" source="6LM1s893S27g-6g2ApPn-28" target="6LM1s893S27g-6g2ApPn-31">
          <mxGeometry relative="1" as="geometry" />
        </mxCell>
        <mxCell id="6LM1s893S27g-6g2ApPn-28" value="" style="strokeWidth=2;html=1;shape=mxgraph.flowchart.start_2;whiteSpace=wrap;fontSize=10;" vertex="1" parent="1">
          <mxGeometry x="390" y="540" width="20" height="20" as="geometry" />
        </mxCell>
        <mxCell id="6LM1s893S27g-6g2ApPn-29" style="edgeStyle=orthogonalEdgeStyle;rounded=0;orthogonalLoop=1;jettySize=auto;html=1;exitX=0.5;exitY=1;exitDx=0;exitDy=0;entryX=1;entryY=0.5;entryDx=0;entryDy=0;entryPerimeter=0;" edge="1" parent="1" source="6LM1s893S27g-6g2ApPn-23" target="6LM1s893S27g-6g2ApPn-28">
          <mxGeometry relative="1" as="geometry" />
        </mxCell>
        <mxCell id="6LM1s893S27g-6g2ApPn-30" style="edgeStyle=orthogonalEdgeStyle;rounded=0;orthogonalLoop=1;jettySize=auto;html=1;exitX=0;exitY=0.5;exitDx=0;exitDy=0;exitPerimeter=0;entryX=0;entryY=0.5;entryDx=0;entryDy=0;entryPerimeter=0;" edge="1" parent="1" source="6LM1s893S27g-6g2ApPn-3" target="6LM1s893S27g-6g2ApPn-28">
          <mxGeometry relative="1" as="geometry" />
        </mxCell>
        <mxCell id="6LM1s893S27g-6g2ApPn-34" style="edgeStyle=orthogonalEdgeStyle;rounded=0;orthogonalLoop=1;jettySize=auto;html=1;exitX=0.5;exitY=1;exitDx=0;exitDy=0;entryX=0.5;entryY=0;entryDx=0;entryDy=0;" edge="1" parent="1" source="6LM1s893S27g-6g2ApPn-31" target="6LM1s893S27g-6g2ApPn-33">
          <mxGeometry relative="1" as="geometry" />
        </mxCell>
        <mxCell id="6LM1s893S27g-6g2ApPn-31" value="n1" style="shape=parallelogram;html=1;strokeWidth=2;perimeter=parallelogramPerimeter;whiteSpace=wrap;rounded=1;arcSize=12;size=0.23;fontSize=10;" vertex="1" parent="1">
          <mxGeometry x="350" y="580" width="100" height="40" as="geometry" />
        </mxCell>
        <mxCell id="6LM1s893S27g-6g2ApPn-33" value="n2" style="shape=parallelogram;html=1;strokeWidth=2;perimeter=parallelogramPerimeter;whiteSpace=wrap;rounded=1;arcSize=12;size=0.23;fontSize=10;" vertex="1" parent="1">
          <mxGeometry x="346" y="640" width="100" height="40" as="geometry" />
        </mxCell>
        <mxCell id="6LM1s893S27g-6g2ApPn-35" value="fine" style="strokeWidth=2;html=1;shape=mxgraph.flowchart.start_1;whiteSpace=wrap;fontSize=10;" vertex="1" parent="1">
          <mxGeometry x="346" y="700" width="100" height="40" as="geometry" />
        </mxCell>
        <mxCell id="6LM1s893S27g-6g2ApPn-36" style="edgeStyle=orthogonalEdgeStyle;rounded=0;orthogonalLoop=1;jettySize=auto;html=1;exitX=0.5;exitY=1;exitDx=0;exitDy=0;entryX=0.5;entryY=0;entryDx=0;entryDy=0;entryPerimeter=0;" edge="1" parent="1" source="6LM1s893S27g-6g2ApPn-33" target="6LM1s893S27g-6g2ApPn-35">
          <mxGeometry relative="1" as="geometry" />
        </mxCell>
      </root>
    </mxGraphModel>
  </diagram>
  <diagram id="pQZ_qkdeXkmJqUAKMgdJ" name="Pagina-6">
    <mxGraphModel dx="566" dy="415" grid="1" gridSize="10" guides="1" tooltips="1" connect="1" arrows="1" fold="1" page="1" pageScale="1" pageWidth="827" pageHeight="1169" math="0" shadow="0">
      <root>
        <mxCell id="0" />
        <mxCell id="1" parent="0" />
        <mxCell id="MW_3OeZ5O8vvX3_MJLl6-1" value="&lt;h1&gt;Multiplo&lt;/h1&gt;&lt;p&gt;Testo sulla classroom esercizio 2&lt;/p&gt;" style="text;html=1;strokeColor=#6c8ebf;fillColor=#dae8fc;spacing=5;spacingTop=-20;whiteSpace=wrap;overflow=hidden;rounded=0;" vertex="1" parent="1">
          <mxGeometry x="10" y="10" width="190" height="70" as="geometry" />
        </mxCell>
        <mxCell id="FifykLYvFhmh3NkbAaJA-8" style="edgeStyle=orthogonalEdgeStyle;rounded=0;orthogonalLoop=1;jettySize=auto;html=1;exitX=0.5;exitY=1;exitDx=0;exitDy=0;exitPerimeter=0;entryX=0.5;entryY=0;entryDx=0;entryDy=0;" edge="1" parent="1" source="AitYBRw2GBlQ2LP8jhV_-1" target="FifykLYvFhmh3NkbAaJA-2">
          <mxGeometry relative="1" as="geometry" />
        </mxCell>
        <mxCell id="AitYBRw2GBlQ2LP8jhV_-1" value="inizio" style="strokeWidth=2;html=1;shape=mxgraph.flowchart.start_1;whiteSpace=wrap;fontSize=10;" vertex="1" parent="1">
          <mxGeometry x="350" y="40" width="100" height="40" as="geometry" />
        </mxCell>
        <mxCell id="FifykLYvFhmh3NkbAaJA-1" style="edgeStyle=orthogonalEdgeStyle;rounded=0;orthogonalLoop=1;jettySize=auto;html=1;exitX=1;exitY=0.5;exitDx=0;exitDy=0;entryX=0;entryY=0.5;entryDx=0;entryDy=0;" edge="1" parent="1" source="FifykLYvFhmh3NkbAaJA-2" target="FifykLYvFhmh3NkbAaJA-4">
          <mxGeometry relative="1" as="geometry" />
        </mxCell>
        <mxCell id="FifykLYvFhmh3NkbAaJA-2" value="Inserisci n1" style="shape=parallelogram;html=1;strokeWidth=2;perimeter=parallelogramPerimeter;whiteSpace=wrap;rounded=1;arcSize=12;size=0.23;fontSize=10;" vertex="1" parent="1">
          <mxGeometry x="350" y="110" width="100" height="40" as="geometry" />
        </mxCell>
        <mxCell id="FifykLYvFhmh3NkbAaJA-3" style="edgeStyle=orthogonalEdgeStyle;rounded=0;orthogonalLoop=1;jettySize=auto;html=1;exitX=0.5;exitY=1;exitDx=0;exitDy=0;entryX=0.5;entryY=0;entryDx=0;entryDy=0;" edge="1" parent="1" source="FifykLYvFhmh3NkbAaJA-4" target="FifykLYvFhmh3NkbAaJA-6">
          <mxGeometry relative="1" as="geometry" />
        </mxCell>
        <mxCell id="FifykLYvFhmh3NkbAaJA-4" value="&lt;br&gt;n1" style="html=1;strokeWidth=2;shape=manualInput;whiteSpace=wrap;rounded=1;size=26;arcSize=11;fontSize=10;" vertex="1" parent="1">
          <mxGeometry x="480" y="110" width="100" height="40" as="geometry" />
        </mxCell>
        <mxCell id="FifykLYvFhmh3NkbAaJA-5" style="edgeStyle=orthogonalEdgeStyle;rounded=0;orthogonalLoop=1;jettySize=auto;html=1;exitX=1;exitY=0.5;exitDx=0;exitDy=0;entryX=0;entryY=0.5;entryDx=0;entryDy=0;" edge="1" parent="1" source="FifykLYvFhmh3NkbAaJA-6" target="FifykLYvFhmh3NkbAaJA-7">
          <mxGeometry relative="1" as="geometry" />
        </mxCell>
        <mxCell id="FifykLYvFhmh3NkbAaJA-6" value="Inserisci n2" style="shape=parallelogram;html=1;strokeWidth=2;perimeter=parallelogramPerimeter;whiteSpace=wrap;rounded=1;arcSize=12;size=0.23;fontSize=10;" vertex="1" parent="1">
          <mxGeometry x="350" y="190" width="100" height="40" as="geometry" />
        </mxCell>
        <mxCell id="FifykLYvFhmh3NkbAaJA-7" value="&lt;br&gt;n2" style="html=1;strokeWidth=2;shape=manualInput;whiteSpace=wrap;rounded=1;size=26;arcSize=11;fontSize=10;" vertex="1" parent="1">
          <mxGeometry x="480" y="190" width="100" height="40" as="geometry" />
        </mxCell>
        <mxCell id="BX9LiEEIpv7OFZxUkEb9-7" style="edgeStyle=orthogonalEdgeStyle;rounded=0;orthogonalLoop=1;jettySize=auto;html=1;exitX=0;exitY=0.5;exitDx=0;exitDy=0;exitPerimeter=0;entryX=0.5;entryY=0;entryDx=0;entryDy=0;fillColor=#ffe6cc;strokeColor=#d79b00;" edge="1" parent="1" source="uyrMrwtBsDlpfFxcOZ15-1" target="XEcmqV-XS45D9_UBw1OE-3">
          <mxGeometry relative="1" as="geometry" />
        </mxCell>
        <mxCell id="BX9LiEEIpv7OFZxUkEb9-8" value="F" style="edgeLabel;html=1;align=center;verticalAlign=middle;resizable=0;points=[];" vertex="1" connectable="0" parent="BX9LiEEIpv7OFZxUkEb9-7">
          <mxGeometry x="-0.1271" y="-1" relative="1" as="geometry">
            <mxPoint as="offset" />
          </mxGeometry>
        </mxCell>
        <mxCell id="uyrMrwtBsDlpfFxcOZ15-1" value="n1 &amp;gt; n2" style="strokeWidth=2;html=1;shape=mxgraph.flowchart.decision;whiteSpace=wrap;fontSize=10;fillColor=#ffe6cc;strokeColor=#d79b00;" vertex="1" parent="1">
          <mxGeometry x="360" y="250" width="80" height="80" as="geometry" />
        </mxCell>
        <mxCell id="uyrMrwtBsDlpfFxcOZ15-2" style="edgeStyle=orthogonalEdgeStyle;rounded=0;orthogonalLoop=1;jettySize=auto;html=1;exitX=0.5;exitY=1;exitDx=0;exitDy=0;entryX=0.5;entryY=0;entryDx=0;entryDy=0;entryPerimeter=0;" edge="1" parent="1" source="FifykLYvFhmh3NkbAaJA-6" target="uyrMrwtBsDlpfFxcOZ15-1">
          <mxGeometry relative="1" as="geometry" />
        </mxCell>
        <mxCell id="XEcmqV-XS45D9_UBw1OE-2" value="F" style="edgeStyle=orthogonalEdgeStyle;rounded=0;orthogonalLoop=1;jettySize=auto;html=1;exitX=0;exitY=0.5;exitDx=0;exitDy=0;exitPerimeter=0;entryX=0.5;entryY=0;entryDx=0;entryDy=0;fillColor=#d5e8d4;strokeColor=#82b366;" edge="1" parent="1" source="amdIy4C1WKGsX69tT7qM-1" target="XEcmqV-XS45D9_UBw1OE-1">
          <mxGeometry relative="1" as="geometry" />
        </mxCell>
        <mxCell id="amdIy4C1WKGsX69tT7qM-1" value="n1%n2 = 0" style="strokeWidth=2;html=1;shape=mxgraph.flowchart.decision;whiteSpace=wrap;fontSize=10;fillColor=#d5e8d4;strokeColor=#82b366;" vertex="1" parent="1">
          <mxGeometry x="494" y="320" width="80" height="80" as="geometry" />
        </mxCell>
        <mxCell id="amdIy4C1WKGsX69tT7qM-2" value="N1 è multiplo di N2" style="shape=parallelogram;html=1;strokeWidth=2;perimeter=parallelogramPerimeter;whiteSpace=wrap;rounded=1;arcSize=12;size=0.23;fontSize=10;" vertex="1" parent="1">
          <mxGeometry x="574" y="380" width="140" height="40" as="geometry" />
        </mxCell>
        <mxCell id="amdIy4C1WKGsX69tT7qM-3" style="edgeStyle=orthogonalEdgeStyle;rounded=0;orthogonalLoop=1;jettySize=auto;html=1;exitX=1;exitY=0.5;exitDx=0;exitDy=0;exitPerimeter=0;entryX=0.557;entryY=-0.075;entryDx=0;entryDy=0;entryPerimeter=0;fillColor=#d5e8d4;strokeColor=#82b366;" edge="1" parent="1" source="amdIy4C1WKGsX69tT7qM-1" target="amdIy4C1WKGsX69tT7qM-2">
          <mxGeometry relative="1" as="geometry" />
        </mxCell>
        <mxCell id="BX9LiEEIpv7OFZxUkEb9-6" value="V" style="edgeLabel;html=1;align=center;verticalAlign=middle;resizable=0;points=[];" vertex="1" connectable="0" parent="amdIy4C1WKGsX69tT7qM-3">
          <mxGeometry x="0.5379" y="1" relative="1" as="geometry">
            <mxPoint as="offset" />
          </mxGeometry>
        </mxCell>
        <mxCell id="FzO-Fg9Y-ZMCYHnki-lW-4" style="edgeStyle=orthogonalEdgeStyle;rounded=0;orthogonalLoop=1;jettySize=auto;html=1;exitX=0.5;exitY=1;exitDx=0;exitDy=0;entryX=0.5;entryY=0;entryDx=0;entryDy=0;fillColor=#d5e8d4;strokeColor=#82b366;" edge="1" parent="1" source="XEcmqV-XS45D9_UBw1OE-1" target="FzO-Fg9Y-ZMCYHnki-lW-3">
          <mxGeometry relative="1" as="geometry" />
        </mxCell>
        <mxCell id="XEcmqV-XS45D9_UBw1OE-1" value="n1 = n1 * n2" style="rounded=1;whiteSpace=wrap;html=1;absoluteArcSize=1;arcSize=14;strokeWidth=2;fontSize=10;" vertex="1" parent="1">
          <mxGeometry x="386" y="380" width="108" height="30" as="geometry" />
        </mxCell>
        <mxCell id="XEcmqV-XS45D9_UBw1OE-3" value="N1 non maggiore di N2" style="shape=parallelogram;html=1;strokeWidth=2;perimeter=parallelogramPerimeter;whiteSpace=wrap;rounded=1;arcSize=12;size=0.23;fontSize=10;" vertex="1" parent="1">
          <mxGeometry x="190" y="320" width="140" height="40" as="geometry" />
        </mxCell>
        <mxCell id="BX9LiEEIpv7OFZxUkEb9-4" style="edgeStyle=orthogonalEdgeStyle;rounded=0;orthogonalLoop=1;jettySize=auto;html=1;exitX=1;exitY=0.5;exitDx=0;exitDy=0;exitPerimeter=0;entryX=0.5;entryY=0;entryDx=0;entryDy=0;entryPerimeter=0;fillColor=#ffe6cc;strokeColor=#d79b00;" edge="1" parent="1" source="uyrMrwtBsDlpfFxcOZ15-1" target="amdIy4C1WKGsX69tT7qM-1">
          <mxGeometry relative="1" as="geometry" />
        </mxCell>
        <mxCell id="BX9LiEEIpv7OFZxUkEb9-5" value="V" style="edgeLabel;html=1;align=center;verticalAlign=middle;resizable=0;points=[];" vertex="1" connectable="0" parent="BX9LiEEIpv7OFZxUkEb9-4">
          <mxGeometry x="0.6152" y="1" relative="1" as="geometry">
            <mxPoint as="offset" />
          </mxGeometry>
        </mxCell>
        <mxCell id="FzO-Fg9Y-ZMCYHnki-lW-1" value="fine" style="strokeWidth=2;html=1;shape=mxgraph.flowchart.start_1;whiteSpace=wrap;fontSize=10;" vertex="1" parent="1">
          <mxGeometry x="350" y="630" width="100" height="40" as="geometry" />
        </mxCell>
        <mxCell id="FzO-Fg9Y-ZMCYHnki-lW-3" value="n1" style="shape=parallelogram;html=1;strokeWidth=2;perimeter=parallelogramPerimeter;whiteSpace=wrap;rounded=1;arcSize=12;size=0.23;fontSize=10;" vertex="1" parent="1">
          <mxGeometry x="370" y="430" width="140" height="40" as="geometry" />
        </mxCell>
        <mxCell id="2-ci4Wcv10_rx3MVt0YR-8" style="edgeStyle=orthogonalEdgeStyle;rounded=0;orthogonalLoop=1;jettySize=auto;html=1;exitX=0.5;exitY=1;exitDx=0;exitDy=0;exitPerimeter=0;entryX=1;entryY=0.5;entryDx=0;entryDy=0;entryPerimeter=0;fillColor=#ffe6cc;strokeColor=#d79b00;" edge="1" parent="1" source="2-ci4Wcv10_rx3MVt0YR-1" target="2-ci4Wcv10_rx3MVt0YR-2">
          <mxGeometry relative="1" as="geometry">
            <mxPoint x="534.1428571428571" y="550" as="targetPoint" />
          </mxGeometry>
        </mxCell>
        <mxCell id="2-ci4Wcv10_rx3MVt0YR-1" value="" style="strokeWidth=2;html=1;shape=mxgraph.flowchart.start_2;whiteSpace=wrap;fontSize=10;fillColor=#d5e8d4;strokeColor=#82b366;" vertex="1" parent="1">
          <mxGeometry x="524" y="490" width="20" height="20" as="geometry" />
        </mxCell>
        <mxCell id="2-ci4Wcv10_rx3MVt0YR-2" value="" style="strokeWidth=2;html=1;shape=mxgraph.flowchart.start_2;whiteSpace=wrap;fontSize=10;fillColor=#ffe6cc;strokeColor=#d79b00;" vertex="1" parent="1">
          <mxGeometry x="390" y="565" width="20" height="20" as="geometry" />
        </mxCell>
        <mxCell id="2-ci4Wcv10_rx3MVt0YR-6" style="edgeStyle=orthogonalEdgeStyle;rounded=0;orthogonalLoop=1;jettySize=auto;html=1;exitX=0.5;exitY=1;exitDx=0;exitDy=0;entryX=1;entryY=0.5;entryDx=0;entryDy=0;entryPerimeter=0;fillColor=#d5e8d4;strokeColor=#82b366;" edge="1" parent="1" source="amdIy4C1WKGsX69tT7qM-2" target="2-ci4Wcv10_rx3MVt0YR-1">
          <mxGeometry relative="1" as="geometry" />
        </mxCell>
        <mxCell id="2-ci4Wcv10_rx3MVt0YR-7" style="edgeStyle=orthogonalEdgeStyle;rounded=0;orthogonalLoop=1;jettySize=auto;html=1;exitX=0.5;exitY=1;exitDx=0;exitDy=0;entryX=0;entryY=0.5;entryDx=0;entryDy=0;entryPerimeter=0;fillColor=#d5e8d4;strokeColor=#82b366;" edge="1" parent="1" source="FzO-Fg9Y-ZMCYHnki-lW-3" target="2-ci4Wcv10_rx3MVt0YR-1">
          <mxGeometry relative="1" as="geometry" />
        </mxCell>
        <mxCell id="2-ci4Wcv10_rx3MVt0YR-9" style="edgeStyle=orthogonalEdgeStyle;rounded=0;orthogonalLoop=1;jettySize=auto;html=1;exitX=0.5;exitY=1;exitDx=0;exitDy=0;entryX=0;entryY=0.5;entryDx=0;entryDy=0;entryPerimeter=0;fillColor=#ffe6cc;strokeColor=#d79b00;" edge="1" parent="1" source="XEcmqV-XS45D9_UBw1OE-3" target="2-ci4Wcv10_rx3MVt0YR-2">
          <mxGeometry relative="1" as="geometry" />
        </mxCell>
      </root>
    </mxGraphModel>
  </diagram>
  <diagram id="keYTTykJQw7h0DWWMj8H" name="Pagina-7">
    <mxGraphModel dx="1363" dy="871" grid="1" gridSize="10" guides="1" tooltips="1" connect="1" arrows="1" fold="1" page="1" pageScale="1" pageWidth="827" pageHeight="1169" math="0" shadow="0">
      <root>
        <mxCell id="0" />
        <mxCell id="1" parent="0" />
        <mxCell id="2wATEcemlRSfb1tZz2Xz-1" value="&lt;h1&gt;&lt;span style=&quot;background-color: initial;&quot;&gt;Verifica della Data&lt;/span&gt;&lt;/h1&gt;&lt;h1&gt;&lt;span style=&quot;background-color: initial; font-size: 12px; font-weight: normal;&quot;&gt;Algoritmo di verifica autenticità di una data&lt;/span&gt;&lt;br&gt;&lt;/h1&gt;" style="text;html=1;strokeColor=none;fillColor=none;spacing=5;spacingTop=-20;whiteSpace=wrap;overflow=hidden;rounded=0;" vertex="1" parent="1">
          <mxGeometry x="10" y="10" width="240" height="80" as="geometry" />
        </mxCell>
        <mxCell id="2wATEcemlRSfb1tZz2Xz-4" style="edgeStyle=orthogonalEdgeStyle;rounded=0;orthogonalLoop=1;jettySize=auto;html=1;entryX=0.5;entryY=0;entryDx=0;entryDy=0;" edge="1" parent="1" source="2wATEcemlRSfb1tZz2Xz-2" target="2wATEcemlRSfb1tZz2Xz-3">
          <mxGeometry relative="1" as="geometry" />
        </mxCell>
        <mxCell id="2wATEcemlRSfb1tZz2Xz-2" value="inizio" style="strokeWidth=2;html=1;shape=mxgraph.flowchart.start_1;whiteSpace=wrap;" vertex="1" parent="1">
          <mxGeometry x="350" y="40" width="100" height="40" as="geometry" />
        </mxCell>
        <mxCell id="2wATEcemlRSfb1tZz2Xz-17" style="edgeStyle=orthogonalEdgeStyle;rounded=0;orthogonalLoop=1;jettySize=auto;html=1;exitX=0.5;exitY=1;exitDx=0;exitDy=0;entryX=0.5;entryY=0;entryDx=0;entryDy=0;" edge="1" parent="1" source="2wATEcemlRSfb1tZz2Xz-3" target="2wATEcemlRSfb1tZz2Xz-5">
          <mxGeometry relative="1" as="geometry" />
        </mxCell>
        <mxCell id="2wATEcemlRSfb1tZz2Xz-3" value="giorno = 0&lt;br&gt;mese = 0&lt;br&gt;anno = 0&lt;br&gt;bisestile = 0" style="rounded=1;whiteSpace=wrap;html=1;absoluteArcSize=1;arcSize=14;strokeWidth=2;" vertex="1" parent="1">
          <mxGeometry x="320" y="120" width="160" height="80" as="geometry" />
        </mxCell>
        <mxCell id="2wATEcemlRSfb1tZz2Xz-11" style="edgeStyle=orthogonalEdgeStyle;rounded=0;orthogonalLoop=1;jettySize=auto;html=1;exitX=1;exitY=0.5;exitDx=0;exitDy=0;entryX=0;entryY=0.5;entryDx=0;entryDy=0;" edge="1" parent="1" source="2wATEcemlRSfb1tZz2Xz-5" target="2wATEcemlRSfb1tZz2Xz-6">
          <mxGeometry relative="1" as="geometry" />
        </mxCell>
        <mxCell id="2wATEcemlRSfb1tZz2Xz-5" value="Inserisci Giorno:" style="shape=parallelogram;html=1;strokeWidth=2;perimeter=parallelogramPerimeter;whiteSpace=wrap;rounded=1;arcSize=12;size=0.23;" vertex="1" parent="1">
          <mxGeometry x="260" y="240" width="140" height="40" as="geometry" />
        </mxCell>
        <mxCell id="2wATEcemlRSfb1tZz2Xz-12" style="edgeStyle=orthogonalEdgeStyle;rounded=0;orthogonalLoop=1;jettySize=auto;html=1;exitX=0.5;exitY=1;exitDx=0;exitDy=0;entryX=0.5;entryY=0;entryDx=0;entryDy=0;" edge="1" parent="1" source="2wATEcemlRSfb1tZz2Xz-6" target="2wATEcemlRSfb1tZz2Xz-7">
          <mxGeometry relative="1" as="geometry" />
        </mxCell>
        <mxCell id="2wATEcemlRSfb1tZz2Xz-6" value="&lt;br&gt;giorno" style="html=1;strokeWidth=2;shape=manualInput;whiteSpace=wrap;rounded=1;size=26;arcSize=11;" vertex="1" parent="1">
          <mxGeometry x="420" y="240" width="100" height="40" as="geometry" />
        </mxCell>
        <mxCell id="2wATEcemlRSfb1tZz2Xz-13" style="edgeStyle=orthogonalEdgeStyle;rounded=0;orthogonalLoop=1;jettySize=auto;html=1;exitX=1;exitY=0.5;exitDx=0;exitDy=0;entryX=0;entryY=0.5;entryDx=0;entryDy=0;" edge="1" parent="1" source="2wATEcemlRSfb1tZz2Xz-7" target="2wATEcemlRSfb1tZz2Xz-8">
          <mxGeometry relative="1" as="geometry" />
        </mxCell>
        <mxCell id="2wATEcemlRSfb1tZz2Xz-7" value="Inserisci Mese:" style="shape=parallelogram;html=1;strokeWidth=2;perimeter=parallelogramPerimeter;whiteSpace=wrap;rounded=1;arcSize=12;size=0.23;" vertex="1" parent="1">
          <mxGeometry x="260" y="320" width="140" height="40" as="geometry" />
        </mxCell>
        <mxCell id="2wATEcemlRSfb1tZz2Xz-14" style="edgeStyle=orthogonalEdgeStyle;rounded=0;orthogonalLoop=1;jettySize=auto;html=1;exitX=0.5;exitY=1;exitDx=0;exitDy=0;entryX=0.5;entryY=0;entryDx=0;entryDy=0;" edge="1" parent="1" source="2wATEcemlRSfb1tZz2Xz-8" target="2wATEcemlRSfb1tZz2Xz-9">
          <mxGeometry relative="1" as="geometry" />
        </mxCell>
        <mxCell id="2wATEcemlRSfb1tZz2Xz-8" value="&lt;br&gt;mese" style="html=1;strokeWidth=2;shape=manualInput;whiteSpace=wrap;rounded=1;size=26;arcSize=11;" vertex="1" parent="1">
          <mxGeometry x="420" y="320" width="100" height="40" as="geometry" />
        </mxCell>
        <mxCell id="2wATEcemlRSfb1tZz2Xz-16" style="edgeStyle=orthogonalEdgeStyle;rounded=0;orthogonalLoop=1;jettySize=auto;html=1;exitX=1;exitY=0.5;exitDx=0;exitDy=0;entryX=0;entryY=0.5;entryDx=0;entryDy=0;" edge="1" parent="1" source="2wATEcemlRSfb1tZz2Xz-9" target="2wATEcemlRSfb1tZz2Xz-10">
          <mxGeometry relative="1" as="geometry" />
        </mxCell>
        <mxCell id="2wATEcemlRSfb1tZz2Xz-9" value="Inserisci Anno:" style="shape=parallelogram;html=1;strokeWidth=2;perimeter=parallelogramPerimeter;whiteSpace=wrap;rounded=1;arcSize=12;size=0.23;" vertex="1" parent="1">
          <mxGeometry x="260" y="400" width="140" height="40" as="geometry" />
        </mxCell>
        <mxCell id="2wATEcemlRSfb1tZz2Xz-10" value="&lt;br&gt;anno" style="html=1;strokeWidth=2;shape=manualInput;whiteSpace=wrap;rounded=1;size=26;arcSize=11;" vertex="1" parent="1">
          <mxGeometry x="420" y="400" width="100" height="40" as="geometry" />
        </mxCell>
        <mxCell id="2wATEcemlRSfb1tZz2Xz-18" value="anno%100&lt;br&gt;=&lt;br&gt;0" style="strokeWidth=2;html=1;shape=mxgraph.flowchart.decision;whiteSpace=wrap;" vertex="1" parent="1">
          <mxGeometry x="350" y="480" width="100" height="80" as="geometry" />
        </mxCell>
        <mxCell id="2wATEcemlRSfb1tZz2Xz-19" style="edgeStyle=orthogonalEdgeStyle;rounded=0;orthogonalLoop=1;jettySize=auto;html=1;exitX=0.5;exitY=1;exitDx=0;exitDy=0;entryX=0.5;entryY=0;entryDx=0;entryDy=0;entryPerimeter=0;" edge="1" parent="1" source="2wATEcemlRSfb1tZz2Xz-10" target="2wATEcemlRSfb1tZz2Xz-18">
          <mxGeometry relative="1" as="geometry" />
        </mxCell>
        <mxCell id="2wATEcemlRSfb1tZz2Xz-25" style="edgeStyle=orthogonalEdgeStyle;rounded=0;orthogonalLoop=1;jettySize=auto;html=1;exitX=1;exitY=0.5;exitDx=0;exitDy=0;exitPerimeter=0;" edge="1" parent="1" source="2wATEcemlRSfb1tZz2Xz-20" target="2wATEcemlRSfb1tZz2Xz-24">
          <mxGeometry relative="1" as="geometry" />
        </mxCell>
        <mxCell id="2wATEcemlRSfb1tZz2Xz-26" value="&lt;b&gt;V&lt;br&gt;&lt;/b&gt;" style="edgeLabel;html=1;align=center;verticalAlign=middle;resizable=0;points=[];" vertex="1" connectable="0" parent="2wATEcemlRSfb1tZz2Xz-25">
          <mxGeometry x="-0.2952" relative="1" as="geometry">
            <mxPoint as="offset" />
          </mxGeometry>
        </mxCell>
        <mxCell id="2wATEcemlRSfb1tZz2Xz-20" value="anno%400&lt;br&gt;=&lt;br&gt;0" style="strokeWidth=2;html=1;shape=mxgraph.flowchart.decision;whiteSpace=wrap;" vertex="1" parent="1">
          <mxGeometry x="440" y="545" width="100" height="80" as="geometry" />
        </mxCell>
        <mxCell id="2wATEcemlRSfb1tZz2Xz-21" style="edgeStyle=orthogonalEdgeStyle;rounded=0;orthogonalLoop=1;jettySize=auto;html=1;exitX=1;exitY=0.5;exitDx=0;exitDy=0;exitPerimeter=0;entryX=0.5;entryY=0;entryDx=0;entryDy=0;entryPerimeter=0;" edge="1" parent="1" source="2wATEcemlRSfb1tZz2Xz-18" target="2wATEcemlRSfb1tZz2Xz-20">
          <mxGeometry relative="1" as="geometry" />
        </mxCell>
        <mxCell id="2wATEcemlRSfb1tZz2Xz-23" value="&lt;b&gt;V&lt;/b&gt;" style="edgeLabel;html=1;align=center;verticalAlign=middle;resizable=0;points=[];" vertex="1" connectable="0" parent="2wATEcemlRSfb1tZz2Xz-21">
          <mxGeometry x="-0.1238" y="-2" relative="1" as="geometry">
            <mxPoint as="offset" />
          </mxGeometry>
        </mxCell>
        <mxCell id="2wATEcemlRSfb1tZz2Xz-22" style="edgeStyle=orthogonalEdgeStyle;rounded=0;orthogonalLoop=1;jettySize=auto;html=1;exitX=0.5;exitY=1;exitDx=0;exitDy=0;exitPerimeter=0;" edge="1" parent="1">
          <mxGeometry relative="1" as="geometry">
            <mxPoint x="490" y="600" as="sourcePoint" />
            <mxPoint x="490" y="600" as="targetPoint" />
          </mxGeometry>
        </mxCell>
        <mxCell id="2wATEcemlRSfb1tZz2Xz-24" value="bisestile = 1" style="rounded=1;whiteSpace=wrap;html=1;absoluteArcSize=1;arcSize=14;strokeWidth=2;" vertex="1" parent="1">
          <mxGeometry x="530" y="610" width="100" height="40" as="geometry" />
        </mxCell>
        <mxCell id="2wATEcemlRSfb1tZz2Xz-28" value="" style="strokeWidth=2;html=1;shape=mxgraph.flowchart.start_2;whiteSpace=wrap;" vertex="1" parent="1">
          <mxGeometry x="480" y="665" width="20" height="20" as="geometry" />
        </mxCell>
        <mxCell id="2wATEcemlRSfb1tZz2Xz-29" style="edgeStyle=orthogonalEdgeStyle;rounded=0;orthogonalLoop=1;jettySize=auto;html=1;entryX=1;entryY=0.5;entryDx=0;entryDy=0;entryPerimeter=0;exitX=0.5;exitY=1;exitDx=0;exitDy=0;" edge="1" parent="1" source="2wATEcemlRSfb1tZz2Xz-24" target="2wATEcemlRSfb1tZz2Xz-28">
          <mxGeometry relative="1" as="geometry" />
        </mxCell>
        <mxCell id="2wATEcemlRSfb1tZz2Xz-32" style="edgeStyle=orthogonalEdgeStyle;rounded=0;orthogonalLoop=1;jettySize=auto;html=1;entryX=0;entryY=0.5;entryDx=0;entryDy=0;entryPerimeter=0;exitX=0;exitY=0.5;exitDx=0;exitDy=0;exitPerimeter=0;" edge="1" parent="1" source="2wATEcemlRSfb1tZz2Xz-20" target="2wATEcemlRSfb1tZz2Xz-28">
          <mxGeometry relative="1" as="geometry" />
        </mxCell>
        <mxCell id="2wATEcemlRSfb1tZz2Xz-38" style="edgeStyle=orthogonalEdgeStyle;rounded=0;orthogonalLoop=1;jettySize=auto;html=1;exitX=1;exitY=0.5;exitDx=0;exitDy=0;exitPerimeter=0;entryX=0.5;entryY=0;entryDx=0;entryDy=0;" edge="1" parent="1" source="2wATEcemlRSfb1tZz2Xz-33" target="2wATEcemlRSfb1tZz2Xz-36">
          <mxGeometry relative="1" as="geometry" />
        </mxCell>
        <mxCell id="2wATEcemlRSfb1tZz2Xz-41" value="&lt;b&gt;V&lt;/b&gt;" style="edgeLabel;html=1;align=center;verticalAlign=middle;resizable=0;points=[];" vertex="1" connectable="0" parent="2wATEcemlRSfb1tZz2Xz-38">
          <mxGeometry x="0.0571" relative="1" as="geometry">
            <mxPoint as="offset" />
          </mxGeometry>
        </mxCell>
        <mxCell id="2wATEcemlRSfb1tZz2Xz-33" value="anno%4&lt;br&gt;=&lt;br&gt;0" style="strokeWidth=2;html=1;shape=mxgraph.flowchart.decision;whiteSpace=wrap;" vertex="1" parent="1">
          <mxGeometry x="220" y="545" width="100" height="80" as="geometry" />
        </mxCell>
        <mxCell id="2wATEcemlRSfb1tZz2Xz-34" style="edgeStyle=orthogonalEdgeStyle;rounded=0;orthogonalLoop=1;jettySize=auto;html=1;exitX=0;exitY=0.5;exitDx=0;exitDy=0;exitPerimeter=0;entryX=0.5;entryY=0;entryDx=0;entryDy=0;entryPerimeter=0;" edge="1" parent="1" source="2wATEcemlRSfb1tZz2Xz-18" target="2wATEcemlRSfb1tZz2Xz-33">
          <mxGeometry relative="1" as="geometry" />
        </mxCell>
        <mxCell id="2wATEcemlRSfb1tZz2Xz-35" value="&lt;b&gt;F&lt;/b&gt;" style="edgeLabel;html=1;align=center;verticalAlign=middle;resizable=0;points=[];" vertex="1" connectable="0" parent="2wATEcemlRSfb1tZz2Xz-34">
          <mxGeometry x="-0.0714" relative="1" as="geometry">
            <mxPoint as="offset" />
          </mxGeometry>
        </mxCell>
        <mxCell id="2wATEcemlRSfb1tZz2Xz-36" value="bisestile = 1" style="rounded=1;whiteSpace=wrap;html=1;absoluteArcSize=1;arcSize=14;strokeWidth=2;" vertex="1" parent="1">
          <mxGeometry x="300" y="610" width="100" height="40" as="geometry" />
        </mxCell>
        <mxCell id="2wATEcemlRSfb1tZz2Xz-37" value="" style="strokeWidth=2;html=1;shape=mxgraph.flowchart.start_2;whiteSpace=wrap;" vertex="1" parent="1">
          <mxGeometry x="260" y="665" width="20" height="20" as="geometry" />
        </mxCell>
        <mxCell id="2wATEcemlRSfb1tZz2Xz-39" style="edgeStyle=orthogonalEdgeStyle;rounded=0;orthogonalLoop=1;jettySize=auto;html=1;exitX=0.5;exitY=1;exitDx=0;exitDy=0;entryX=1;entryY=0.5;entryDx=0;entryDy=0;entryPerimeter=0;" edge="1" parent="1" source="2wATEcemlRSfb1tZz2Xz-36" target="2wATEcemlRSfb1tZz2Xz-37">
          <mxGeometry relative="1" as="geometry" />
        </mxCell>
        <mxCell id="2wATEcemlRSfb1tZz2Xz-40" style="edgeStyle=orthogonalEdgeStyle;rounded=0;orthogonalLoop=1;jettySize=auto;html=1;exitX=0;exitY=0.5;exitDx=0;exitDy=0;exitPerimeter=0;entryX=0;entryY=0.5;entryDx=0;entryDy=0;entryPerimeter=0;" edge="1" parent="1" source="2wATEcemlRSfb1tZz2Xz-33" target="2wATEcemlRSfb1tZz2Xz-37">
          <mxGeometry relative="1" as="geometry" />
        </mxCell>
        <mxCell id="2wATEcemlRSfb1tZz2Xz-42" value="" style="strokeWidth=2;html=1;shape=mxgraph.flowchart.annotation_2;align=left;labelPosition=right;pointerEvents=1;" vertex="1" parent="1">
          <mxGeometry x="100" y="520" width="50" height="170" as="geometry" />
        </mxCell>
        <mxCell id="2wATEcemlRSfb1tZz2Xz-43" value="&lt;b&gt;Check del&lt;br&gt;bisestile&lt;br&gt;&lt;/b&gt;" style="text;html=1;strokeColor=none;fillColor=none;align=center;verticalAlign=middle;whiteSpace=wrap;rounded=0;" vertex="1" parent="1">
          <mxGeometry x="30" y="585" width="60" height="30" as="geometry" />
        </mxCell>
        <mxCell id="2wATEcemlRSfb1tZz2Xz-49" style="edgeStyle=orthogonalEdgeStyle;rounded=0;orthogonalLoop=1;jettySize=auto;html=1;exitX=0.5;exitY=1;exitDx=0;exitDy=0;exitPerimeter=0;entryX=0.5;entryY=0;entryDx=0;entryDy=0;" edge="1" parent="1" source="2wATEcemlRSfb1tZz2Xz-44" target="2wATEcemlRSfb1tZz2Xz-48">
          <mxGeometry relative="1" as="geometry" />
        </mxCell>
        <mxCell id="2wATEcemlRSfb1tZz2Xz-44" value="" style="strokeWidth=2;html=1;shape=mxgraph.flowchart.start_2;whiteSpace=wrap;" vertex="1" parent="1">
          <mxGeometry x="390" y="700" width="20" height="20" as="geometry" />
        </mxCell>
        <mxCell id="2wATEcemlRSfb1tZz2Xz-45" style="edgeStyle=orthogonalEdgeStyle;rounded=0;orthogonalLoop=1;jettySize=auto;html=1;entryX=0;entryY=0.5;entryDx=0;entryDy=0;entryPerimeter=0;exitX=0.5;exitY=1;exitDx=0;exitDy=0;exitPerimeter=0;" edge="1" parent="1" source="2wATEcemlRSfb1tZz2Xz-37" target="2wATEcemlRSfb1tZz2Xz-44">
          <mxGeometry relative="1" as="geometry" />
        </mxCell>
        <mxCell id="2wATEcemlRSfb1tZz2Xz-46" style="edgeStyle=orthogonalEdgeStyle;rounded=0;orthogonalLoop=1;jettySize=auto;html=1;exitX=0.5;exitY=1;exitDx=0;exitDy=0;exitPerimeter=0;entryX=1;entryY=0.5;entryDx=0;entryDy=0;entryPerimeter=0;" edge="1" parent="1" source="2wATEcemlRSfb1tZz2Xz-28" target="2wATEcemlRSfb1tZz2Xz-44">
          <mxGeometry relative="1" as="geometry" />
        </mxCell>
        <mxCell id="2wATEcemlRSfb1tZz2Xz-51" style="edgeStyle=orthogonalEdgeStyle;rounded=0;orthogonalLoop=1;jettySize=auto;html=1;exitX=0;exitY=0.5;exitDx=0;exitDy=0;entryX=0.5;entryY=0;entryDx=0;entryDy=0;fillColor=#ffe6cc;strokeColor=#d79b00;strokeWidth=3;" edge="1" parent="1" source="2wATEcemlRSfb1tZz2Xz-48" target="2wATEcemlRSfb1tZz2Xz-50">
          <mxGeometry relative="1" as="geometry" />
        </mxCell>
        <mxCell id="2wATEcemlRSfb1tZz2Xz-55" value="&lt;b&gt;F&lt;/b&gt;" style="edgeLabel;html=1;align=center;verticalAlign=middle;resizable=0;points=[];" vertex="1" connectable="0" parent="2wATEcemlRSfb1tZz2Xz-51">
          <mxGeometry x="-0.4789" y="-2" relative="1" as="geometry">
            <mxPoint as="offset" />
          </mxGeometry>
        </mxCell>
        <mxCell id="2wATEcemlRSfb1tZz2Xz-48" value="mese&amp;gt;=1&lt;br&gt;e&lt;br&gt;mese&amp;lt;=12" style="rhombus;whiteSpace=wrap;html=1;fillColor=#ffe6cc;strokeColor=#d79b00;" vertex="1" parent="1">
          <mxGeometry x="345" y="740" width="110" height="80" as="geometry" />
        </mxCell>
        <mxCell id="2wATEcemlRSfb1tZz2Xz-50" value="Data non Valida" style="shape=parallelogram;html=1;strokeWidth=2;perimeter=parallelogramPerimeter;whiteSpace=wrap;rounded=1;arcSize=12;size=0.23;" vertex="1" parent="1">
          <mxGeometry x="120" y="800" width="130" height="40" as="geometry" />
        </mxCell>
        <mxCell id="2wATEcemlRSfb1tZz2Xz-52" value="mese == 2&lt;br&gt;" style="strokeWidth=2;html=1;shape=mxgraph.flowchart.decision;whiteSpace=wrap;fillColor=#d5e8d4;strokeColor=#82b366;" vertex="1" parent="1">
          <mxGeometry x="560" y="800" width="100" height="70" as="geometry" />
        </mxCell>
        <mxCell id="2wATEcemlRSfb1tZz2Xz-53" style="edgeStyle=orthogonalEdgeStyle;rounded=0;orthogonalLoop=1;jettySize=auto;html=1;exitX=1;exitY=0.5;exitDx=0;exitDy=0;entryX=0.5;entryY=0;entryDx=0;entryDy=0;entryPerimeter=0;fillColor=#ffe6cc;strokeColor=#d79b00;strokeWidth=3;" edge="1" parent="1" source="2wATEcemlRSfb1tZz2Xz-48" target="2wATEcemlRSfb1tZz2Xz-52">
          <mxGeometry relative="1" as="geometry" />
        </mxCell>
        <mxCell id="2wATEcemlRSfb1tZz2Xz-54" value="&lt;b&gt;V&lt;/b&gt;" style="edgeLabel;html=1;align=center;verticalAlign=middle;resizable=0;points=[];" vertex="1" connectable="0" parent="2wATEcemlRSfb1tZz2Xz-53">
          <mxGeometry x="-0.5551" relative="1" as="geometry">
            <mxPoint as="offset" />
          </mxGeometry>
        </mxCell>
        <mxCell id="2wATEcemlRSfb1tZz2Xz-60" style="edgeStyle=orthogonalEdgeStyle;rounded=0;orthogonalLoop=1;jettySize=auto;html=1;exitX=1;exitY=0.5;exitDx=0;exitDy=0;exitPerimeter=0;entryX=0.5;entryY=0;entryDx=0;entryDy=0;" edge="1" parent="1" source="2wATEcemlRSfb1tZz2Xz-57" target="2wATEcemlRSfb1tZz2Xz-59">
          <mxGeometry relative="1" as="geometry" />
        </mxCell>
        <mxCell id="2wATEcemlRSfb1tZz2Xz-61" value="&lt;b&gt;V&lt;/b&gt;" style="edgeLabel;html=1;align=center;verticalAlign=middle;resizable=0;points=[];" vertex="1" connectable="0" parent="2wATEcemlRSfb1tZz2Xz-60">
          <mxGeometry x="0.0971" y="-1" relative="1" as="geometry">
            <mxPoint as="offset" />
          </mxGeometry>
        </mxCell>
        <mxCell id="2wATEcemlRSfb1tZz2Xz-63" style="edgeStyle=orthogonalEdgeStyle;rounded=0;orthogonalLoop=1;jettySize=auto;html=1;exitX=0;exitY=0.5;exitDx=0;exitDy=0;exitPerimeter=0;entryX=0.5;entryY=0;entryDx=0;entryDy=0;" edge="1" parent="1" source="2wATEcemlRSfb1tZz2Xz-57">
          <mxGeometry relative="1" as="geometry">
            <mxPoint x="730" y="940" as="targetPoint" />
          </mxGeometry>
        </mxCell>
        <mxCell id="2wATEcemlRSfb1tZz2Xz-64" value="&lt;b&gt;F&lt;/b&gt;" style="edgeLabel;html=1;align=center;verticalAlign=middle;resizable=0;points=[];" vertex="1" connectable="0" parent="2wATEcemlRSfb1tZz2Xz-63">
          <mxGeometry x="0.039" relative="1" as="geometry">
            <mxPoint as="offset" />
          </mxGeometry>
        </mxCell>
        <mxCell id="2wATEcemlRSfb1tZz2Xz-57" value="giorno&amp;gt;=1&lt;br&gt;e&lt;br&gt;giorno&amp;lt;=&lt;br&gt;28+bisestile" style="strokeWidth=2;html=1;shape=mxgraph.flowchart.decision;whiteSpace=wrap;" vertex="1" parent="1">
          <mxGeometry x="750" y="860" width="150" height="90" as="geometry" />
        </mxCell>
        <mxCell id="2wATEcemlRSfb1tZz2Xz-58" style="edgeStyle=orthogonalEdgeStyle;rounded=0;orthogonalLoop=1;jettySize=auto;html=1;exitX=1;exitY=0.5;exitDx=0;exitDy=0;exitPerimeter=0;entryX=0.5;entryY=0;entryDx=0;entryDy=0;entryPerimeter=0;fillColor=#d5e8d4;strokeColor=#82b366;strokeWidth=3;" edge="1" parent="1" source="2wATEcemlRSfb1tZz2Xz-52" target="2wATEcemlRSfb1tZz2Xz-57">
          <mxGeometry relative="1" as="geometry" />
        </mxCell>
        <mxCell id="2wATEcemlRSfb1tZz2Xz-71" value="&lt;b&gt;V&lt;/b&gt;" style="edgeLabel;html=1;align=center;verticalAlign=middle;resizable=0;points=[];" vertex="1" connectable="0" parent="2wATEcemlRSfb1tZz2Xz-58">
          <mxGeometry x="-0.0185" relative="1" as="geometry">
            <mxPoint as="offset" />
          </mxGeometry>
        </mxCell>
        <mxCell id="2wATEcemlRSfb1tZz2Xz-59" value="Data Valida!" style="shape=parallelogram;html=1;strokeWidth=2;perimeter=parallelogramPerimeter;whiteSpace=wrap;rounded=1;arcSize=12;size=0.23;" vertex="1" parent="1">
          <mxGeometry x="870" y="940" width="100" height="50" as="geometry" />
        </mxCell>
        <mxCell id="2wATEcemlRSfb1tZz2Xz-62" value="Data non Valida!" style="shape=parallelogram;html=1;strokeWidth=2;perimeter=parallelogramPerimeter;whiteSpace=wrap;rounded=1;arcSize=12;size=0.23;" vertex="1" parent="1">
          <mxGeometry x="650" y="940" width="130" height="50" as="geometry" />
        </mxCell>
        <mxCell id="2wATEcemlRSfb1tZz2Xz-65" value="" style="verticalLabelPosition=bottom;verticalAlign=top;html=1;shape=mxgraph.flowchart.on-page_reference;" vertex="1" parent="1">
          <mxGeometry x="815" y="1000" width="20" height="20" as="geometry" />
        </mxCell>
        <mxCell id="2wATEcemlRSfb1tZz2Xz-66" style="edgeStyle=orthogonalEdgeStyle;rounded=0;orthogonalLoop=1;jettySize=auto;html=1;exitX=0.5;exitY=1;exitDx=0;exitDy=0;entryX=0;entryY=0.5;entryDx=0;entryDy=0;entryPerimeter=0;" edge="1" parent="1" source="2wATEcemlRSfb1tZz2Xz-62" target="2wATEcemlRSfb1tZz2Xz-65">
          <mxGeometry relative="1" as="geometry">
            <mxPoint x="730" y="990" as="sourcePoint" />
          </mxGeometry>
        </mxCell>
        <mxCell id="2wATEcemlRSfb1tZz2Xz-67" style="edgeStyle=orthogonalEdgeStyle;rounded=0;orthogonalLoop=1;jettySize=auto;html=1;exitX=0.5;exitY=1;exitDx=0;exitDy=0;entryX=1;entryY=0.5;entryDx=0;entryDy=0;entryPerimeter=0;" edge="1" parent="1" source="2wATEcemlRSfb1tZz2Xz-59" target="2wATEcemlRSfb1tZz2Xz-65">
          <mxGeometry relative="1" as="geometry" />
        </mxCell>
        <mxCell id="2wATEcemlRSfb1tZz2Xz-68" value="mese=1 o mese=3 o&lt;br&gt;mese=5 o mese=7 o&lt;br&gt;mese=8 o mese=10 o&lt;br&gt;mese=12" style="strokeWidth=2;html=1;shape=mxgraph.flowchart.decision;whiteSpace=wrap;fillColor=#e1d5e7;strokeColor=#9673a6;" vertex="1" parent="1">
          <mxGeometry x="441" y="1020" width="200" height="100" as="geometry" />
        </mxCell>
        <mxCell id="2wATEcemlRSfb1tZz2Xz-69" style="edgeStyle=orthogonalEdgeStyle;rounded=0;orthogonalLoop=1;jettySize=auto;html=1;entryX=0.5;entryY=0;entryDx=0;entryDy=0;entryPerimeter=0;exitX=0;exitY=0.5;exitDx=0;exitDy=0;exitPerimeter=0;fillColor=#d5e8d4;strokeColor=#82b366;strokeWidth=3;" edge="1" parent="1" source="2wATEcemlRSfb1tZz2Xz-52" target="2wATEcemlRSfb1tZz2Xz-68">
          <mxGeometry relative="1" as="geometry">
            <mxPoint x="610" y="1029.9999999999998" as="targetPoint" />
          </mxGeometry>
        </mxCell>
        <mxCell id="2wATEcemlRSfb1tZz2Xz-70" value="&lt;b&gt;F&lt;/b&gt;" style="edgeLabel;html=1;align=center;verticalAlign=middle;resizable=0;points=[];" vertex="1" connectable="0" parent="2wATEcemlRSfb1tZz2Xz-69">
          <mxGeometry x="-0.6698" relative="1" as="geometry">
            <mxPoint as="offset" />
          </mxGeometry>
        </mxCell>
        <mxCell id="2wATEcemlRSfb1tZz2Xz-75" style="edgeStyle=orthogonalEdgeStyle;rounded=0;orthogonalLoop=1;jettySize=auto;html=1;exitX=1;exitY=0.5;exitDx=0;exitDy=0;exitPerimeter=0;entryX=0.5;entryY=0;entryDx=0;entryDy=0;" edge="1" parent="1" source="2wATEcemlRSfb1tZz2Xz-72" target="2wATEcemlRSfb1tZz2Xz-74">
          <mxGeometry relative="1" as="geometry" />
        </mxCell>
        <mxCell id="2wATEcemlRSfb1tZz2Xz-78" value="&lt;b&gt;V&lt;/b&gt;" style="edgeLabel;html=1;align=center;verticalAlign=middle;resizable=0;points=[];" vertex="1" connectable="0" parent="2wATEcemlRSfb1tZz2Xz-75">
          <mxGeometry x="0.3488" relative="1" as="geometry">
            <mxPoint as="offset" />
          </mxGeometry>
        </mxCell>
        <mxCell id="2wATEcemlRSfb1tZz2Xz-77" style="edgeStyle=orthogonalEdgeStyle;rounded=0;orthogonalLoop=1;jettySize=auto;html=1;exitX=0;exitY=0.5;exitDx=0;exitDy=0;exitPerimeter=0;entryX=0.5;entryY=0;entryDx=0;entryDy=0;" edge="1" parent="1" source="2wATEcemlRSfb1tZz2Xz-72" target="2wATEcemlRSfb1tZz2Xz-76">
          <mxGeometry relative="1" as="geometry" />
        </mxCell>
        <mxCell id="2wATEcemlRSfb1tZz2Xz-79" value="&lt;b&gt;F&lt;/b&gt;" style="edgeLabel;html=1;align=center;verticalAlign=middle;resizable=0;points=[];" vertex="1" connectable="0" parent="2wATEcemlRSfb1tZz2Xz-77">
          <mxGeometry x="0.2212" y="-1" relative="1" as="geometry">
            <mxPoint as="offset" />
          </mxGeometry>
        </mxCell>
        <mxCell id="2wATEcemlRSfb1tZz2Xz-72" value="giorno&amp;gt;=1&lt;br&gt;e giorno &amp;lt;=31" style="strokeWidth=2;html=1;shape=mxgraph.flowchart.decision;whiteSpace=wrap;" vertex="1" parent="1">
          <mxGeometry x="651" y="1100" width="100" height="100" as="geometry" />
        </mxCell>
        <mxCell id="2wATEcemlRSfb1tZz2Xz-73" style="edgeStyle=orthogonalEdgeStyle;rounded=0;orthogonalLoop=1;jettySize=auto;html=1;entryX=0.5;entryY=0;entryDx=0;entryDy=0;entryPerimeter=0;exitX=1;exitY=0.5;exitDx=0;exitDy=0;exitPerimeter=0;fillColor=#e1d5e7;strokeColor=#9673a6;strokeWidth=3;" edge="1" parent="1" source="2wATEcemlRSfb1tZz2Xz-68" target="2wATEcemlRSfb1tZz2Xz-72">
          <mxGeometry relative="1" as="geometry" />
        </mxCell>
        <mxCell id="2wATEcemlRSfb1tZz2Xz-106" value="&lt;b&gt;V&lt;/b&gt;" style="edgeLabel;html=1;align=center;verticalAlign=middle;resizable=0;points=[];" vertex="1" connectable="0" parent="2wATEcemlRSfb1tZz2Xz-73">
          <mxGeometry x="-0.4074" y="3" relative="1" as="geometry">
            <mxPoint as="offset" />
          </mxGeometry>
        </mxCell>
        <mxCell id="2wATEcemlRSfb1tZz2Xz-74" value="Data Valida!" style="shape=parallelogram;html=1;strokeWidth=2;perimeter=parallelogramPerimeter;whiteSpace=wrap;rounded=1;arcSize=12;size=0.23;" vertex="1" parent="1">
          <mxGeometry x="714" y="1179" width="100" height="50" as="geometry" />
        </mxCell>
        <mxCell id="2wATEcemlRSfb1tZz2Xz-76" value="Data non Valida!" style="shape=parallelogram;html=1;strokeWidth=2;perimeter=parallelogramPerimeter;whiteSpace=wrap;rounded=1;arcSize=12;size=0.23;" vertex="1" parent="1">
          <mxGeometry x="546" y="1179" width="130" height="50" as="geometry" />
        </mxCell>
        <mxCell id="2wATEcemlRSfb1tZz2Xz-80" value="" style="verticalLabelPosition=bottom;verticalAlign=top;html=1;shape=mxgraph.flowchart.on-page_reference;" vertex="1" parent="1">
          <mxGeometry x="691" y="1240" width="20" height="20" as="geometry" />
        </mxCell>
        <mxCell id="2wATEcemlRSfb1tZz2Xz-81" style="edgeStyle=orthogonalEdgeStyle;rounded=0;orthogonalLoop=1;jettySize=auto;html=1;exitX=0.5;exitY=1;exitDx=0;exitDy=0;entryX=0;entryY=0.5;entryDx=0;entryDy=0;entryPerimeter=0;" edge="1" parent="1" source="2wATEcemlRSfb1tZz2Xz-76" target="2wATEcemlRSfb1tZz2Xz-80">
          <mxGeometry relative="1" as="geometry" />
        </mxCell>
        <mxCell id="2wATEcemlRSfb1tZz2Xz-82" style="edgeStyle=orthogonalEdgeStyle;rounded=0;orthogonalLoop=1;jettySize=auto;html=1;exitX=0.5;exitY=1;exitDx=0;exitDy=0;entryX=1;entryY=0.5;entryDx=0;entryDy=0;entryPerimeter=0;" edge="1" parent="1" source="2wATEcemlRSfb1tZz2Xz-74" target="2wATEcemlRSfb1tZz2Xz-80">
          <mxGeometry relative="1" as="geometry" />
        </mxCell>
        <mxCell id="2wATEcemlRSfb1tZz2Xz-84" style="edgeStyle=orthogonalEdgeStyle;rounded=0;orthogonalLoop=1;jettySize=auto;html=1;exitX=1;exitY=0.5;exitDx=0;exitDy=0;exitPerimeter=0;entryX=0.5;entryY=0;entryDx=0;entryDy=0;" edge="1" parent="1" source="2wATEcemlRSfb1tZz2Xz-88" target="2wATEcemlRSfb1tZz2Xz-89">
          <mxGeometry relative="1" as="geometry" />
        </mxCell>
        <mxCell id="2wATEcemlRSfb1tZz2Xz-85" value="&lt;b&gt;V&lt;/b&gt;" style="edgeLabel;html=1;align=center;verticalAlign=middle;resizable=0;points=[];" vertex="1" connectable="0" parent="2wATEcemlRSfb1tZz2Xz-84">
          <mxGeometry x="0.3488" relative="1" as="geometry">
            <mxPoint as="offset" />
          </mxGeometry>
        </mxCell>
        <mxCell id="2wATEcemlRSfb1tZz2Xz-86" style="edgeStyle=orthogonalEdgeStyle;rounded=0;orthogonalLoop=1;jettySize=auto;html=1;exitX=0;exitY=0.5;exitDx=0;exitDy=0;exitPerimeter=0;entryX=0.5;entryY=0;entryDx=0;entryDy=0;" edge="1" parent="1" source="2wATEcemlRSfb1tZz2Xz-88" target="2wATEcemlRSfb1tZz2Xz-90">
          <mxGeometry relative="1" as="geometry" />
        </mxCell>
        <mxCell id="2wATEcemlRSfb1tZz2Xz-87" value="&lt;b&gt;F&lt;/b&gt;" style="edgeLabel;html=1;align=center;verticalAlign=middle;resizable=0;points=[];" vertex="1" connectable="0" parent="2wATEcemlRSfb1tZz2Xz-86">
          <mxGeometry x="0.2212" y="-1" relative="1" as="geometry">
            <mxPoint as="offset" />
          </mxGeometry>
        </mxCell>
        <mxCell id="2wATEcemlRSfb1tZz2Xz-88" value="giorno&amp;gt;=1&lt;br&gt;e giorno &amp;lt;=30" style="strokeWidth=2;html=1;shape=mxgraph.flowchart.decision;whiteSpace=wrap;" vertex="1" parent="1">
          <mxGeometry x="336" y="1100" width="100" height="100" as="geometry" />
        </mxCell>
        <mxCell id="2wATEcemlRSfb1tZz2Xz-89" value="Data Valida!" style="shape=parallelogram;html=1;strokeWidth=2;perimeter=parallelogramPerimeter;whiteSpace=wrap;rounded=1;arcSize=12;size=0.23;" vertex="1" parent="1">
          <mxGeometry x="404" y="1179" width="100" height="50" as="geometry" />
        </mxCell>
        <mxCell id="2wATEcemlRSfb1tZz2Xz-90" value="Data non Valida!" style="shape=parallelogram;html=1;strokeWidth=2;perimeter=parallelogramPerimeter;whiteSpace=wrap;rounded=1;arcSize=12;size=0.23;" vertex="1" parent="1">
          <mxGeometry x="231" y="1179" width="130" height="50" as="geometry" />
        </mxCell>
        <mxCell id="2wATEcemlRSfb1tZz2Xz-91" value="" style="verticalLabelPosition=bottom;verticalAlign=top;html=1;shape=mxgraph.flowchart.on-page_reference;" vertex="1" parent="1">
          <mxGeometry x="376" y="1240" width="20" height="20" as="geometry" />
        </mxCell>
        <mxCell id="2wATEcemlRSfb1tZz2Xz-92" style="edgeStyle=orthogonalEdgeStyle;rounded=0;orthogonalLoop=1;jettySize=auto;html=1;exitX=0.5;exitY=1;exitDx=0;exitDy=0;entryX=0;entryY=0.5;entryDx=0;entryDy=0;entryPerimeter=0;" edge="1" parent="1" source="2wATEcemlRSfb1tZz2Xz-90" target="2wATEcemlRSfb1tZz2Xz-91">
          <mxGeometry relative="1" as="geometry" />
        </mxCell>
        <mxCell id="2wATEcemlRSfb1tZz2Xz-93" style="edgeStyle=orthogonalEdgeStyle;rounded=0;orthogonalLoop=1;jettySize=auto;html=1;exitX=0.5;exitY=1;exitDx=0;exitDy=0;entryX=1;entryY=0.5;entryDx=0;entryDy=0;entryPerimeter=0;" edge="1" parent="1" source="2wATEcemlRSfb1tZz2Xz-89" target="2wATEcemlRSfb1tZz2Xz-91">
          <mxGeometry relative="1" as="geometry" />
        </mxCell>
        <mxCell id="2wATEcemlRSfb1tZz2Xz-94" style="edgeStyle=orthogonalEdgeStyle;rounded=0;orthogonalLoop=1;jettySize=auto;html=1;exitX=0;exitY=0.5;exitDx=0;exitDy=0;exitPerimeter=0;entryX=0.5;entryY=0;entryDx=0;entryDy=0;entryPerimeter=0;fillColor=#e1d5e7;strokeColor=#9673a6;strokeWidth=3;" edge="1" parent="1" source="2wATEcemlRSfb1tZz2Xz-68" target="2wATEcemlRSfb1tZz2Xz-88">
          <mxGeometry relative="1" as="geometry" />
        </mxCell>
        <mxCell id="2wATEcemlRSfb1tZz2Xz-107" value="&lt;b&gt;F&lt;/b&gt;" style="edgeLabel;html=1;align=center;verticalAlign=middle;resizable=0;points=[];" vertex="1" connectable="0" parent="2wATEcemlRSfb1tZz2Xz-94">
          <mxGeometry x="0.1176" y="3" relative="1" as="geometry">
            <mxPoint as="offset" />
          </mxGeometry>
        </mxCell>
        <mxCell id="2wATEcemlRSfb1tZz2Xz-95" value="" style="verticalLabelPosition=bottom;verticalAlign=top;html=1;shape=mxgraph.flowchart.on-page_reference;" vertex="1" parent="1">
          <mxGeometry x="531" y="1270" width="20" height="20" as="geometry" />
        </mxCell>
        <mxCell id="2wATEcemlRSfb1tZz2Xz-96" style="edgeStyle=orthogonalEdgeStyle;rounded=0;orthogonalLoop=1;jettySize=auto;html=1;exitX=0.5;exitY=1;exitDx=0;exitDy=0;exitPerimeter=0;entryX=0;entryY=0.5;entryDx=0;entryDy=0;entryPerimeter=0;fillColor=#e1d5e7;strokeColor=#9673a6;strokeWidth=3;" edge="1" parent="1" source="2wATEcemlRSfb1tZz2Xz-91" target="2wATEcemlRSfb1tZz2Xz-95">
          <mxGeometry relative="1" as="geometry" />
        </mxCell>
        <mxCell id="2wATEcemlRSfb1tZz2Xz-97" style="edgeStyle=orthogonalEdgeStyle;rounded=0;orthogonalLoop=1;jettySize=auto;html=1;exitX=0.5;exitY=1;exitDx=0;exitDy=0;exitPerimeter=0;entryX=1;entryY=0.5;entryDx=0;entryDy=0;entryPerimeter=0;fillColor=#e1d5e7;strokeColor=#9673a6;strokeWidth=3;" edge="1" parent="1" source="2wATEcemlRSfb1tZz2Xz-80" target="2wATEcemlRSfb1tZz2Xz-95">
          <mxGeometry relative="1" as="geometry" />
        </mxCell>
        <mxCell id="2wATEcemlRSfb1tZz2Xz-112" style="edgeStyle=orthogonalEdgeStyle;rounded=0;orthogonalLoop=1;jettySize=auto;html=1;" edge="1" parent="1" source="2wATEcemlRSfb1tZz2Xz-98">
          <mxGeometry relative="1" as="geometry">
            <mxPoint x="400" y="1380" as="targetPoint" />
          </mxGeometry>
        </mxCell>
        <mxCell id="2wATEcemlRSfb1tZz2Xz-98" value="" style="verticalLabelPosition=bottom;verticalAlign=top;html=1;shape=mxgraph.flowchart.on-page_reference;" vertex="1" parent="1">
          <mxGeometry x="390" y="1350" width="20" height="20" as="geometry" />
        </mxCell>
        <mxCell id="2wATEcemlRSfb1tZz2Xz-99" style="edgeStyle=orthogonalEdgeStyle;rounded=0;orthogonalLoop=1;jettySize=auto;html=1;entryX=1;entryY=0.5;entryDx=0;entryDy=0;entryPerimeter=0;fillColor=#ffe6cc;strokeColor=#d79b00;strokeWidth=3;exitX=0.5;exitY=1;exitDx=0;exitDy=0;exitPerimeter=0;" edge="1" parent="1" source="2wATEcemlRSfb1tZz2Xz-113" target="2wATEcemlRSfb1tZz2Xz-98">
          <mxGeometry relative="1" as="geometry">
            <mxPoint x="640" y="1420" as="sourcePoint" />
          </mxGeometry>
        </mxCell>
        <mxCell id="2wATEcemlRSfb1tZz2Xz-100" style="edgeStyle=orthogonalEdgeStyle;rounded=0;orthogonalLoop=1;jettySize=auto;html=1;exitX=0.5;exitY=1;exitDx=0;exitDy=0;entryX=0;entryY=0.5;entryDx=0;entryDy=0;entryPerimeter=0;fillColor=#ffe6cc;strokeColor=#d79b00;strokeWidth=3;" edge="1" parent="1" source="2wATEcemlRSfb1tZz2Xz-50" target="2wATEcemlRSfb1tZz2Xz-98">
          <mxGeometry relative="1" as="geometry" />
        </mxCell>
        <mxCell id="2wATEcemlRSfb1tZz2Xz-101" value="fine" style="strokeWidth=2;html=1;shape=mxgraph.flowchart.start_1;whiteSpace=wrap;" vertex="1" parent="1">
          <mxGeometry x="350" y="1390" width="100" height="40" as="geometry" />
        </mxCell>
        <mxCell id="2wATEcemlRSfb1tZz2Xz-102" style="edgeStyle=orthogonalEdgeStyle;rounded=0;orthogonalLoop=1;jettySize=auto;html=1;exitX=0.5;exitY=1;exitDx=0;exitDy=0;exitPerimeter=0;entryX=0.5;entryY=0;entryDx=0;entryDy=0;entryPerimeter=0;" edge="1" parent="1" source="2wATEcemlRSfb1tZz2Xz-98" target="2wATEcemlRSfb1tZz2Xz-101">
          <mxGeometry relative="1" as="geometry" />
        </mxCell>
        <mxCell id="2wATEcemlRSfb1tZz2Xz-105" style="edgeStyle=orthogonalEdgeStyle;rounded=0;orthogonalLoop=1;jettySize=auto;html=1;exitX=0.5;exitY=1;exitDx=0;exitDy=0;exitPerimeter=0;fillColor=#d5e8d4;strokeColor=#82b366;strokeWidth=3;entryX=1;entryY=0.5;entryDx=0;entryDy=0;entryPerimeter=0;" edge="1" parent="1" source="2wATEcemlRSfb1tZz2Xz-65" target="2wATEcemlRSfb1tZz2Xz-113">
          <mxGeometry relative="1" as="geometry">
            <mxPoint x="950" y="1090" as="targetPoint" />
          </mxGeometry>
        </mxCell>
        <mxCell id="2wATEcemlRSfb1tZz2Xz-113" value="" style="verticalLabelPosition=bottom;verticalAlign=top;html=1;shape=mxgraph.flowchart.on-page_reference;" vertex="1" parent="1">
          <mxGeometry x="600" y="1300" width="20" height="20" as="geometry" />
        </mxCell>
        <mxCell id="2wATEcemlRSfb1tZz2Xz-114" style="edgeStyle=orthogonalEdgeStyle;rounded=0;orthogonalLoop=1;jettySize=auto;html=1;exitX=0.5;exitY=1;exitDx=0;exitDy=0;exitPerimeter=0;entryX=0;entryY=0.5;entryDx=0;entryDy=0;entryPerimeter=0;fillColor=#d5e8d4;strokeColor=#82b366;strokeWidth=3;" edge="1" parent="1" source="2wATEcemlRSfb1tZz2Xz-95" target="2wATEcemlRSfb1tZz2Xz-113">
          <mxGeometry relative="1" as="geometry" />
        </mxCell>
      </root>
    </mxGraphModel>
  </diagram>
</mxfile>
